<svg xmlns="http://www.w3.org/2000/svg" xmlns:xlink="http://www.w3.org/1999/xlink" width="1080" zoomAndPan="magnify" viewBox="0 0 810 1439.999935" height="1920" preserveAspectRatio="xMidYMid meet" version="1.0"><defs><clipPath id="65b347df09"><path d="M 35 45 L 248 45 L 248 202 L 35 202 Z M 35 45 " clip-rule="nonzero"/></clipPath><clipPath id="3d8571d0de"><path d="M 32.691406 24.152344 L 265.878906 74.199219 L 233.144531 226.726562 L -0.046875 176.679688 Z M 32.691406 24.152344 " clip-rule="nonzero"/></clipPath><clipPath id="3c56a72f78"><path d="M 32.691406 24.152344 L 265.878906 74.199219 L 233.144531 226.726562 L -0.046875 176.679688 Z M 32.691406 24.152344 " clip-rule="nonzero"/></clipPath><clipPath id="282618d152"><path d="M 514 515 L 751 515 L 751 699 L 514 699 Z M 514 515 " clip-rule="nonzero"/></clipPath><clipPath id="e69c7c80d1"><path d="M 486 579.339844 L 743.351562 477.554688 L 809.832031 645.632812 L 552.480469 747.421875 Z M 486 579.339844 " clip-rule="nonzero"/></clipPath><clipPath id="7db52cff23"><path d="M 486 579.339844 L 743.351562 477.554688 L 809.832031 645.632812 L 552.480469 747.421875 Z M 486 579.339844 " clip-rule="nonzero"/></clipPath><clipPath id="7b0f0ba8df"><path d="M 75 1032 L 273 1032 L 273 1178 L 75 1178 Z M 75 1032 " clip-rule="nonzero"/></clipPath><clipPath id="7e04aeb52b"><path d="M 73.09375 1012.5625 L 289.417969 1058.992188 L 259.042969 1200.519531 L 42.71875 1154.089844 Z M 73.09375 1012.5625 " clip-rule="nonzero"/></clipPath><clipPath id="40d5c2959a"><path d="M 73.09375 1012.5625 L 289.417969 1058.992188 L 259.042969 1200.519531 L 42.71875 1154.089844 Z M 73.09375 1012.5625 " clip-rule="nonzero"/></clipPath></defs><g clip-path="url(#65b347df09)"><g clip-path="url(#3d8571d0de)"><g clip-path="url(#3c56a72f78)"><path fill="#fad02c" d="M 215.6875 129.429688 C 219.925781 131.339844 219.957031 135.566406 219.4375 138.425781 C 217.796875 147.363281 204.34375 153.230469 185.621094 145.992188 C 177.523438 142.878906 169.082031 137.59375 159.265625 126.796875 C 159.136719 126.957031 159.058594 127.03125 159.015625 127.085938 C 159.148438 127.769531 159.152344 128.492188 158.964844 129.203125 C 158.894531 129.53125 158.773438 129.816406 158.613281 130.125 C 164.574219 131.5625 177.332031 144.210938 179.808594 148.652344 C 180.34375 149.644531 180.507812 150.492188 180.527344 151.121094 C 180.675781 151.152344 180.796875 151.179688 180.945312 151.210938 C 184.851562 152.332031 193.652344 175.421875 193.433594 177.3125 C 193.1875 179.199219 185.972656 173.992188 183.957031 169.585938 C 181.402344 164.191406 178.355469 156.441406 178.667969 152.941406 C 175.988281 151.929688 167.46875 146.128906 161.855469 142.921875 C 159.273438 141.429688 156.765625 136.109375 156.457031 132.757812 C 155.875 133.136719 155.265625 133.503906 154.625 133.742188 C 154.996094 135.199219 154.683594 136.664062 153.710938 137.988281 C 153.152344 138.710938 152.484375 139.347656 151.722656 139.84375 C 151.921875 140.074219 152.140625 140.371094 152.328125 140.660156 C 152.375 140.734375 152.445312 140.839844 152.46875 140.878906 C 152.710938 139.742188 153.269531 139.171875 154.179688 139.304688 C 159.527344 140.390625 168.125 153.964844 169.835938 159.082031 C 170.128906 160.179688 170.195312 161.035156 170.054688 161.695312 C 170.203125 161.726562 170.382812 161.765625 170.5625 161.804688 C 174.265625 163.441406 170.503906 193.3125 169.421875 194.863281 C 168.34375 196.410156 163.511719 185.929688 163.832031 180.652344 C 164.164062 175.1875 165.542969 166.730469 167.765625 163.203125 C 165.132812 162.390625 159.050781 157.144531 158.003906 155.917969 C 157.453125 155.300781 156.949219 154.597656 156.460938 153.960938 C 157.183594 160.183594 156.859375 166.335938 156.4375 169.183594 C 155.460938 176.199219 153.140625 182.515625 150.816406 185.769531 C 150.714844 185.8125 144.359375 195.953125 132.179688 199.0625 C 132.179688 199.0625 125.476562 201.535156 117.097656 201.765625 C 109.550781 198.117188 104.449219 193.113281 104.449219 193.113281 C 94.648438 185.285156 93.015625 173.429688 92.910156 173.34375 C 92.128906 169.421875 92.570312 162.699219 94.589844 155.910156 C 95.367188 153.167969 97.65625 147.4375 100.816406 142.019531 C 100.070312 142.453125 99.363281 142.832031 98.605469 143.167969 C 97.117188 143.851562 89.449219 146.144531 86.714844 145.808594 C 87.296875 149.9375 85.050781 158.210938 83.140625 163.335938 C 81.296875 168.285156 72.566406 175.824219 72.210938 173.996094 C 71.863281 172.140625 80.71875 143.363281 84.738281 143.382812 C 84.929688 143.363281 85.082031 143.394531 85.246094 143.492188 C 85.386719 142.835938 85.785156 142.140625 86.519531 141.203125 C 90.175781 137.234375 103.609375 128.421875 108.910156 129.589844 C 109.804688 129.78125 110.039062 130.582031 109.824219 131.726562 C 109.898438 131.679688 110.007812 131.609375 110.042969 131.585938 C 110.332031 131.398438 110.609375 131.269531 110.929688 131.085938 C 110.445312 130.296875 110.03125 129.457031 109.878906 128.578125 C 109.535156 126.972656 109.851562 125.507812 110.789062 124.332031 C 110.246094 123.8125 109.835938 123.253906 109.519531 122.683594 C 107.808594 125.570312 103.324219 129.453125 100.425781 129.738281 C 93.984375 130.390625 83.84375 132.152344 80.980469 131.976562 C 79.832031 135.292969 73.84375 141.109375 69.328125 144.984375 C 65.695312 148.113281 56.945312 149.925781 57.515625 148.140625 C 58.0625 146.320312 75.585938 128.910156 79.617188 129.464844 C 79.765625 129.496094 79.886719 129.519531 80.035156 129.554688 C 80.320312 128.957031 80.808594 128.28125 81.703125 127.597656 C 85.8125 124.570312 102.574219 118.285156 108.632812 119.398438 C 108.632812 119.117188 108.679688 118.753906 108.691406 118.410156 C 108.785156 117.679688 109.082031 117.023438 109.515625 116.460938 C 109.46875 116.390625 109.464844 116.261719 109.40625 116.09375 C 96.023438 121.914062 86.214844 123.28125 77.496094 122.785156 C 57.601562 121.734375 47.707031 110.855469 49.910156 102.042969 C 50.609375 99.222656 52.4375 95.363281 57.019531 95.375 C 25.746094 86.445312 28.648438 42.976562 64.199219 58.863281 C 82.015625 66.40625 104.007812 84.855469 117.984375 96.046875 C 118.632812 95.777344 119.359375 95.589844 120.054688 95.550781 C 117.539062 93.761719 114.566406 89.871094 113.941406 86.828125 C 112.570312 80.5625 111.894531 78.042969 112.257812 76.929688 C 109.90625 76.707031 105.214844 75.011719 101.066406 72.402344 C 96.96875 69.835938 93.070312 61.398438 91.625 60.152344 C 93.378906 58.214844 102.285156 65.847656 112.734375 75 C 113.367188 75.542969 113.65625 75.949219 113.746094 76.25 C 114.449219 76.464844 115.324219 77.183594 116.484375 78.464844 C 119.195312 81.671875 123.441406 88.054688 124.070312 92.535156 C 124.898438 91.871094 125.84375 91.386719 126.84375 91.097656 C 125.15625 89.800781 124.464844 87.929688 125.734375 85.078125 C 126.257812 83.9375 126.984375 82.875 127.785156 81.921875 C 130.105469 79.105469 133.042969 77.328125 136.191406 76.46875 C 133.941406 73.421875 135.273438 62.140625 131.097656 58.335938 C 125.253906 53.015625 116.722656 51.339844 114.277344 48.785156 C 113.722656 48.164062 113.398438 47.34375 113.476562 46.546875 C 114.117188 41.683594 129.191406 50.953125 132.285156 55.429688 C 133.589844 57.335938 134.648438 58.660156 134.667969 59.289062 C 135.140625 61.453125 139.980469 72.1875 139.085938 75.902344 C 142.261719 75.648438 145.472656 76.242188 148.3125 77.695312 C 148.535156 77.804688 148.753906 77.949219 148.988281 78.027344 C 149.699219 74.273438 158.523438 66.441406 159.835938 64.691406 C 160.125 64.066406 161.664062 63.300781 163.59375 62.152344 C 168.253906 59.335938 185.765625 57.089844 184.386719 61.765625 C 184.15625 62.5625 183.546875 63.210938 182.742188 63.476562 C 179.402344 64.792969 170.996094 62.832031 163.484375 65.285156 C 158.121094 67.011719 154.726562 77.882812 151.398438 79.734375 C 153.917969 81.808594 155.875 84.601562 156.828125 88.152344 C 157.164062 89.351562 157.324219 90.636719 157.402344 91.875 C 157.386719 94.996094 155.988281 96.417969 153.949219 96.917969 C 154.742188 97.585938 155.40625 98.417969 155.886719 99.367188 C 158.300781 95.535156 164.789062 91.457031 168.574219 89.675781 C 170.179688 89.019531 171.242188 88.714844 171.976562 88.777344 C 172.183594 88.542969 172.679688 88.273438 173.414062 88.054688 C 186.683594 83.929688 197.957031 80.660156 198.757812 83.175781 C 196.957031 83.726562 189.882812 89.808594 185.121094 90.472656 C 180.234375 91.144531 175.300781 90.742188 173.054688 90.011719 C 173.003906 91.125 171.292969 93.132812 167.460938 98.347656 C 165.582031 100.851562 161.328125 103.222656 158.304688 103.792969 C 158.921875 104.113281 159.480469 104.578125 159.992188 105.09375 C 177.328125 100.621094 204.960938 92.792969 224.296875 93.253906 C 227.351562 93.253906 230.046875 93.488281 232.410156 93.960938 C 232.5 93.980469 232.648438 94.015625 232.738281 94.035156 C 260.421875 99.632812 245.253906 133.679688 215.6875 129.429688 Z M 204.417969 104.621094 C 204.1875 104.824219 204.296875 105.191406 204.585938 105.15625 C 207.890625 104.867188 219.46875 102.816406 227.515625 104.703125 C 229.203125 105.125 231.191406 103.707031 232.996094 102.125 C 233.644531 101.578125 237.355469 99.121094 233.347656 96.855469 C 231.621094 95.890625 228.558594 95.480469 224.09375 95.367188 C 215.277344 95.007812 215.550781 97.222656 204.417969 104.621094 Z M 188.90625 108.015625 C 198.148438 112.03125 207.632812 116.976562 217.605469 117.300781 C 218.96875 117.34375 220.382812 117.148438 221.71875 116.746094 L 234.941406 112.832031 C 235.476562 112.664062 235.625 111.976562 235.199219 111.636719 C 221.636719 101.4375 204.320312 108.855469 188.90625 108.015625 Z M 163.328125 107.71875 C 168.691406 106.992188 175.566406 106.496094 181.777344 106.203125 C 183.667969 106.109375 185.59375 106.148438 187.550781 106.191406 C 195.984375 106.566406 212.558594 97.082031 208.929688 96.835938 C 194.445312 98.917969 174.394531 102.960938 163.328125 107.71875 Z M 161.535156 112.867188 C 174.402344 118.753906 189.304688 115.605469 203.59375 116.453125 C 192.058594 110.476562 172.902344 104.675781 162.101562 110.957031 C 162.050781 111.632812 161.851562 112.277344 161.535156 112.867188 Z M 180.511719 119.222656 C 176.65625 118.144531 172.476562 117.84375 168.242188 117.371094 C 167.269531 117.257812 163.308594 117.6875 164.042969 118.785156 C 164.375 119.261719 166.78125 120.558594 170.101562 121.367188 C 176.242188 122.839844 180.875 123.492188 188.71875 124.578125 C 191.21875 124.710938 183.601562 120.074219 180.511719 119.222656 Z M 166.222656 122.722656 C 165.84375 123.171875 175.9375 128.902344 178.648438 129.640625 C 181.359375 130.378906 191.367188 128.085938 191.660156 127.304688 C 191.957031 126.496094 166.605469 122.242188 166.222656 122.722656 Z M 147.636719 88.683594 C 147.902344 90.929688 152.035156 93.910156 153.164062 91.121094 C 152.632812 89.535156 150.222656 88.707031 150.484375 86.605469 C 151.332031 78.59375 146.027344 84.273438 147.636719 88.683594 Z M 129.585938 86.027344 C 129.460938 89.066406 134.492188 88.019531 135.625 86.074219 C 138.964844 82.726562 136.398438 75.359375 133.886719 82.980469 C 133.253906 85.0625 130.707031 84.863281 129.585938 86.027344 Z M 113.316406 100.484375 C 106.046875 90.324219 86.167969 87.75 73.222656 88.472656 C 86.632812 93.570312 98.914062 102.492188 113.050781 102.460938 C 112.976562 101.789062 113.085938 101.125 113.316406 100.484375 Z M 108.320312 106.761719 C 109.46875 106.070312 106.003906 104.042969 105.070312 103.75 C 101.007812 102.472656 97.078125 101.003906 93.121094 100.402344 C 89.984375 99.917969 81.101562 101.042969 83.4375 101.921875 C 91.050781 104.085938 95.53125 105.457031 101.738281 106.628906 C 105.113281 107.324219 107.808594 107.121094 108.320312 106.761719 Z M 79.664062 103.238281 C 79.652344 104.015625 87.820312 110.273438 90.566406 110.707031 C 93.34375 111.144531 104.898438 110.0625 104.738281 109.496094 C 104.550781 108.921875 79.6875 102.398438 79.664062 103.238281 Z M 90.082031 86.804688 C 75.648438 81.238281 62.90625 67.371094 46.453125 71.0625 C 45.894531 71.191406 45.753906 71.851562 46.195312 72.257812 L 56.621094 81.25 C 57.671875 82.164062 58.878906 82.921875 60.140625 83.445312 C 69.328125 87.292969 80.003906 86.675781 90.082031 86.804688 Z M 92.039062 85.691406 C 93.816406 86.417969 95.5625 87.136719 97.296875 88.074219 C 102.855469 90.953125 108.90625 94.160156 113.5 97.023438 C 105.367188 88.117188 88.734375 76.230469 76.375 68.417969 C 72.972656 67.121094 84.179688 82.628906 92.039062 85.691406 Z M 52.289062 63.339844 C 53.289062 65.523438 54.519531 67.632812 56.230469 67.941406 C 64.316406 69.519531 74.023438 76.167969 76.957031 77.765625 C 77.207031 77.914062 77.492188 77.597656 77.328125 77.34375 C 70.179688 66.023438 71.339844 64.113281 63.183594 60.832031 C 59.0625 59.105469 56.105469 58.21875 54.132812 58.390625 C 49.558594 58.78125 51.929688 62.542969 52.289062 63.339844 Z M 49.726562 67.730469 C 51.617188 67.355469 51.832031 66.933594 50.945312 65.242188 C 48.59375 60.796875 44.222656 58.640625 41.382812 60.6875 C 38.539062 62.734375 37.863281 64.871094 38.160156 66.53125 C 38.558594 69.179688 42.582031 69.042969 49.726562 67.730469 Z M 46.335938 84.828125 C 48.515625 85.296875 51.953125 84.6875 54.128906 83.84375 C 54.777344 83.574219 54.898438 82.726562 54.386719 82.207031 L 43.710938 72.945312 C 42.46875 71.894531 40.761719 71.5625 39.289062 72.183594 C 37.585938 73.285156 37.652344 76.179688 39.074219 78.703125 C 39.589844 79.785156 44.070312 84.339844 46.335938 84.828125 Z M 89.261719 98.042969 C 79.488281 93.726562 71.976562 89.925781 60.5625 85.691406 C 59.320312 85.238281 57.980469 85.074219 56.65625 85.292969 C 52.632812 85.867188 47.082031 87.175781 47.40625 87.558594 C 50.402344 90.890625 73.585938 102.777344 89.261719 98.042969 Z M 55.746094 101.167969 C 63.964844 105.308594 79.574219 113.976562 86.347656 110.894531 C 87.121094 109.621094 77.578125 105.105469 73.835938 102.332031 C 72.46875 101.289062 70.917969 100.515625 69.25 100.003906 C 65.773438 98.914062 62.917969 97.546875 59.1875 97.34375 C 58.191406 97.316406 57.109375 97.425781 55.980469 97.75 C 54.410156 98.226562 54.195312 100.398438 55.746094 101.167969 Z M 63.761719 115.992188 C 65.339844 116.050781 74.585938 113.8125 74.410156 112.585938 C 74.238281 111.359375 61.015625 106.113281 54.789062 103.152344 C 53.230469 102.410156 51.519531 103.703125 51.796875 105.324219 C 52.410156 108.863281 54.554688 111.515625 57.246094 113.65625 C 59.167969 115.160156 61.464844 115.9375 63.761719 115.992188 Z M 93.292969 112.542969 L 78.265625 113.664062 C 77.660156 113.722656 77.105469 113.851562 76.496094 114.066406 L 66.691406 118.183594 C 65.976562 118.46875 70.578125 121.144531 77.484375 120.0625 C 83.25 119.078125 88.996094 115.558594 93.292969 112.542969 Z M 109.085938 113.523438 C 108.800781 112.960938 108.640625 112.394531 108.515625 111.808594 C 107.472656 111.582031 105.597656 111.460938 102.355469 111.734375 C 99.785156 111.933594 97.3125 112.714844 95.074219 113.988281 L 84.152344 120.242188 C 88.78125 120.921875 105.550781 116.175781 109.085938 113.523438 Z M 113.246094 104.316406 C 113.152344 104.015625 113.097656 103.691406 113.007812 103.390625 C 112.246094 103.882812 111.617188 104.625 111.109375 105.390625 C 111.738281 104.929688 112.453125 104.519531 113.246094 104.316406 Z M 110.445312 115.472656 C 110.296875 115.285156 110.109375 115.152344 110.019531 114.976562 C 109.976562 115.464844 109.902344 115.824219 109.835938 116.125 C 110.015625 115.878906 110.214844 115.671875 110.445312 115.472656 Z M 145.023438 188.21875 C 144.703125 188.398438 144.3125 188.472656 143.832031 188.242188 C 142.25 187.621094 142.179688 185.324219 142.179688 185.324219 C 142.179688 185.324219 141.28125 186.757812 139.125 186.042969 C 136.957031 185.390625 137.191406 183.566406 137.191406 183.566406 C 137.191406 183.566406 136.09375 185.050781 134.203125 184.707031 C 132.25 184.351562 132.109375 182.976562 131.941406 182.15625 C 130.292969 184.023438 127.570312 183.191406 126.902344 180.792969 C 125.582031 182.292969 122.660156 181.667969 121.757812 180.191406 C 120.300781 181.160156 117.410156 180.539062 116.820312 178.632812 C 115.21875 180.570312 112.394531 180.214844 111.664062 177.804688 C 111.175781 178.484375 110.484375 179.679688 108.558594 179.203125 C 106.632812 178.726562 106.300781 176.9375 106.300781 176.9375 C 106.300781 176.9375 105.765625 178.695312 103.519531 178.402344 C 101.273438 178.109375 101.027344 176.492188 101.027344 176.492188 C 101.027344 176.492188 100.054688 178.566406 98.324219 178.476562 C 97.800781 178.457031 97.445312 178.226562 97.25 177.964844 C 98.902344 183.351562 102.953125 189.476562 107.277344 192.71875 C 108.757812 193.816406 110.917969 193.5 111.878906 191.921875 C 111.96875 191.785156 112.019531 191.703125 112.050781 191.554688 C 112.5625 192.664062 114.492188 193.703125 116.070312 193.761719 C 117.660156 193.757812 118.667969 192.847656 119.164062 192.140625 C 119.390625 192.972656 119.898438 194.238281 121.316406 194.886719 C 122.769531 195.542969 124.96875 195.328125 125.886719 194.523438 C 125.914062 194.6875 125.917969 194.8125 125.894531 194.929688 C 126.15625 196.769531 127.960938 197.9375 129.761719 197.542969 C 135.066406 196.367188 141.304688 192.453125 145.023438 188.21875 Z M 148.773438 150.527344 C 148.453125 151.148438 147.460938 152.71875 145.644531 152.328125 C 142.707031 151.761719 142.316406 148.359375 142.140625 148.011719 C 142.046875 148.148438 141.039062 150.089844 138.5 149.417969 C 136.496094 148.582031 136.222656 147.242188 135.996094 145.535156 C 135.785156 146.085938 135.445312 146.511719 134.984375 146.757812 C 133.589844 147.738281 131.632812 147.414062 130.421875 146.214844 C 129.988281 145.777344 129.613281 145.195312 129.414062 144.527344 C 128.949219 145.085938 128.375 145.433594 127.800781 145.652344 C 126.203125 146.246094 124.285156 145.742188 123.414062 144.273438 C 123.171875 143.816406 122.960938 143.332031 122.996094 142.746094 C 122.140625 144.25 121.253906 145.339844 119.117188 145.257812 C 116.550781 144.863281 116.433594 142.648438 116.375 142.480469 C 116.085938 142.667969 114.265625 145.625 111.410156 144.980469 C 109.574219 144.523438 109.335938 142.722656 109.292969 142.054688 C 108.863281 142.464844 106.386719 144.558594 104.660156 143.875 C 101.753906 146.660156 98.113281 155.480469 98.09375 156.164062 C 98.011719 156.832031 98.199219 157.5625 99.09375 157.753906 C 100.941406 158.148438 102.058594 156.574219 102.039062 156.664062 C 102.078125 157.363281 102.761719 157.945312 103.855469 158.085938 C 105.855469 158.359375 107.195312 156.769531 107.195312 156.769531 C 107.191406 157.519531 107.644531 158.304688 109.234375 158.460938 C 110.707031 158.714844 112.015625 157.710938 112.074219 157.003906 C 112.414062 158.171875 113.402344 158.667969 114.675781 158.6875 C 115.9375 158.773438 116.625 158.324219 117.550781 157.492188 C 117.550781 157.492188 117.714844 159.058594 119.523438 159.355469 C 121.332031 159.648438 122.890625 158.640625 123.074219 157.929688 C 123.074219 157.929688 123.339844 160.175781 125.910156 160.851562 C 128.535156 161.257812 129.695312 159.347656 129.695312 159.347656 C 129.640625 160.027344 130.582031 161.601562 132.347656 162.105469 C 134.117188 162.582031 134.90625 161.21875 134.90625 161.21875 C 135.351562 162.34375 135.863281 163.019531 137.039062 163.488281 C 138.222656 163.929688 139.320312 163.917969 140.105469 163.019531 C 139.859375 163.71875 140.640625 165.167969 142.097656 165.511719 C 143.609375 166.023438 144.382812 165.472656 144.648438 164.808594 C 144.648438 164.808594 145.21875 166.808594 147.152344 167.378906 C 148.207031 167.699219 149.101562 167.453125 149.394531 166.828125 C 149.414062 166.738281 150.160156 168.777344 151.636719 169.03125 C 153.167969 169.296875 153.390625 166.65625 153.425781 166.503906 C 153.644531 156.328125 152.496094 154.109375 152.257812 154.058594 C 150.371094 154 148.941406 151.066406 148.773438 150.527344 Z M 156.523438 113.699219 C 157.257812 113.324219 158.402344 112.351562 158.792969 110.683594 C 158.945312 109.964844 158.921875 109.210938 158.664062 108.527344 C 158.050781 106.867188 156.597656 106.085938 155.398438 105.859375 C 154.652344 105.699219 153.996094 105.714844 153.628906 105.824219 C 153.859375 105.183594 154.757812 101.875 151.433594 99.035156 C 150.851562 98.566406 150.253906 98.28125 149.6875 98.160156 C 148.226562 97.847656 146.914062 98.441406 146.492188 98.820312 C 146.523438 98.230469 146.503906 96.289062 144.167969 95.101562 C 143.800781 94.925781 143.484375 94.796875 143.144531 94.785156 C 141.253906 94.441406 139.800781 96.132812 139.425781 96.707031 C 139.417969 96.019531 139.148438 93.929688 136.632812 93.449219 C 136.394531 93.398438 136.214844 93.359375 135.902344 93.355469 C 132.988281 93.136719 132.371094 95.570312 132.230469 96.507812 C 132.046875 95.78125 131.425781 94.304688 129.636719 93.917969 C 129.128906 93.8125 128.425781 93.753906 127.675781 93.90625 C 123.972656 94.582031 123.308594 98.847656 123.257812 99.523438 C 122.980469 99.214844 122.128906 98.53125 120.984375 98.347656 C 120.089844 98.15625 118.960938 98.320312 117.671875 99.230469 C 114.992188 101.84375 117.140625 105.777344 117.140625 105.777344 C 117.140625 105.777344 112.609375 106.398438 111.785156 110.101562 C 111.433594 111.746094 112.8125 114.761719 115.96875 115.59375 C 115.96875 115.59375 111.882812 115.3125 111.628906 119.105469 C 111.347656 122.890625 115.5625 124.042969 115.5625 124.042969 C 115.5625 124.042969 110.867188 126.007812 113.386719 129.519531 C 114.832031 131.519531 116.625 131.152344 117.9375 130.558594 C 117.996094 130.570312 118.027344 130.578125 118.085938 130.589844 C 118.820312 130.214844 119.355469 129.769531 119.585938 129.566406 C 119.714844 130.125 120.277344 132.59375 122.601562 133.683594 C 124.921875 134.777344 127.078125 133.894531 127.789062 132.765625 C 127.847656 132.777344 127.878906 132.785156 127.9375 132.796875 C 127.949219 132.738281 128.015625 132.722656 128.027344 132.660156 C 128.015625 133.597656 128.363281 135.890625 130.925781 136.597656 C 133.757812 137.363281 135.148438 135.097656 135.480469 134.417969 C 135.542969 134.429688 135.570312 134.4375 135.628906 134.449219 C 135.898438 135.101562 136.953125 137.296875 139.828125 137.414062 C 141.4375 137.476562 142.5 136.738281 143.097656 135.988281 C 143.15625 136.003906 143.1875 136.007812 143.246094 136.023438 C 143.789062 135.386719 144.019531 134.75 144.078125 134.480469 C 144.460938 135.15625 146.257812 137.699219 148.683594 137.28125 C 148.746094 137.296875 148.746094 137.296875 148.773438 137.300781 C 149.0625 137.269531 149.394531 137.183594 149.710938 137.003906 C 153.757812 135.152344 150.925781 131.636719 150.925781 131.636719 C 150.925781 131.636719 154.976562 131.378906 155.6875 128.496094 C 156.390625 125.648438 154.480469 124.234375 154.480469 124.234375 C 154.480469 124.234375 158.449219 124.335938 159.507812 120.28125 C 160.609375 116.453125 156.523438 113.699219 156.523438 113.699219 Z M 159.15625 125.550781 C 158.945312 125.664062 158.769531 125.75 158.566406 125.832031 C 158.695312 126.109375 158.851562 126.394531 158.917969 126.660156 C 158.917969 126.375 159.066406 125.972656 159.15625 125.550781 Z M 162.074219 116.328125 C 161.984375 115.433594 161.691406 114.464844 161.164062 113.726562 C 161.019531 113.976562 160.804688 114.242188 160.566406 114.472656 C 161.207031 114.984375 161.71875 115.65625 162.074219 116.328125 Z M 180.507812 140.890625 L 173.117188 130.707031 C 171.621094 128.664062 169.691406 126.90625 167.398438 125.664062 C 164.582031 124.121094 162.863281 123.410156 161.8125 123.214844 C 161.449219 123.730469 161.078125 124.152344 160.589844 124.546875 C 162.714844 128.441406 176.09375 139.664062 180.507812 140.890625 Z M 197.359375 146.230469 L 190.109375 138.449219 C 189.703125 138.019531 189.199219 137.597656 188.660156 137.355469 L 175.417969 130.167969 C 178.097656 134.683594 181.894531 140.25 186.8125 143.496094 C 192.570312 147.328125 197.859375 146.804688 197.359375 146.230469 Z M 214.382812 137.40625 C 207.476562 137.613281 193.296875 136.976562 192.617188 137.957031 C 191.957031 139.003906 199.476562 144.804688 200.933594 145.433594 C 203.046875 146.324219 205.523438 146.574219 207.804688 145.96875 C 211.203125 145.101562 214.171875 143.613281 216.191406 140.609375 C 217.144531 139.21875 216.121094 137.308594 214.382812 137.40625 Z M 212.761719 130.273438 C 209.246094 128.921875 206.082031 128.996094 202.492188 128.566406 C 200.753906 128.382812 199.046875 128.484375 197.355469 128.808594 C 192.808594 129.804688 182.25 130.007812 182.433594 131.484375 C 187.335938 137.136719 205.101562 135.601562 214.332031 135.175781 C 216.03125 135.101562 216.753906 133.035156 215.46875 131.914062 C 214.617188 131.234375 213.644531 130.679688 212.761719 130.273438 Z M 220.003906 120.382812 C 218.871094 119.699219 217.601562 119.210938 216.273438 119.144531 C 204.128906 118.320312 195.726562 118.671875 185.035156 118.628906 C 197.328125 129.367188 223.390625 127.988281 227.515625 126.214844 C 227.992188 126.035156 223.472656 122.53125 220.003906 120.382812 Z M 241.242188 115.589844 C 240.152344 114.417969 238.445312 113.957031 236.898438 114.46875 L 223.359375 118.539062 C 222.664062 118.730469 222.449219 119.59375 222.925781 120.132812 C 224.523438 121.851562 227.417969 123.753906 229.625 124.230469 C 231.832031 124.703125 237.847656 122.398438 238.808594 121.695312 C 241.15625 119.917969 242.34375 117.296875 241.242188 115.589844 Z M 244.066406 104.1875 C 242.316406 101.15625 237.441406 101.328125 233.480469 104.386719 C 231.957031 105.527344 232 106.039062 233.570312 107.15625 C 239.539062 111.316406 243.160156 113.0625 244.65625 110.882812 C 245.554688 109.449219 245.785156 107.214844 244.066406 104.1875 Z M 153.535156 111.492188 C 153.042969 111.449219 152.609375 111.734375 152.535156 112.21875 C 152.261719 113.941406 150.894531 114.773438 149.6875 114.734375 C 148.367188 114.636719 147.558594 113.621094 147.53125 111.988281 C 147.546875 111.492188 147.125 111.117188 146.625 111.136719 C 146.128906 111.125 145.757812 111.542969 145.773438 112.046875 C 145.792969 112.832031 144.292969 113.855469 142.5625 113.921875 C 141.3125 113.9375 139.242188 113.554688 139.125 110.464844 C 139.078125 109.953125 138.660156 109.582031 138.214844 109.613281 C 137.707031 109.660156 137.335938 110.082031 137.367188 110.523438 C 137.378906 111.183594 137.132812 111.601562 136.621094 111.960938 C 135.445312 112.644531 133.320312 112.378906 131.957031 111.460938 C 131.222656 110.957031 130.4375 110.101562 130.601562 108.761719 C 130.644531 108.269531 130.304688 107.820312 129.820312 107.75 C 129.328125 107.707031 128.882812 108.046875 128.808594 108.53125 C 128.765625 109.023438 128.488281 109.308594 128.011719 109.488281 C 126.894531 109.902344 125.128906 109.398438 124.007812 108.378906 C 123.433594 107.847656 122.777344 106.988281 123.128906 105.78125 C 123.234375 105.304688 122.996094 104.8125 122.488281 104.707031 C 122.023438 104.542969 121.523438 104.84375 121.414062 105.351562 C 121.007812 106.953125 121.480469 108.523438 122.84375 109.722656 C 124.46875 111.164062 126.925781 111.785156 128.652344 111.15625 C 128.820312 111.097656 128.957031 111.035156 129.140625 110.917969 C 129.503906 111.683594 130.097656 112.40625 130.921875 112.925781 C 131.65625 113.429688 132.519531 113.769531 133.414062 113.960938 C 134.875 114.273438 136.367188 114.15625 137.433594 113.542969 C 137.644531 113.429688 137.835938 113.285156 138.015625 113.167969 C 138.78125 114.675781 140.191406 115.820312 142.636719 115.753906 C 143.992188 115.699219 145.402344 115.222656 146.382812 114.429688 C 147.082031 115.832031 148.40625 116.492188 149.667969 116.574219 C 151.605469 116.707031 153.992188 115.3125 154.421875 112.589844 C 154.34375 112.074219 154.011719 111.597656 153.535156 111.492188 Z M 150.082031 124.824219 C 149.589844 124.78125 149.15625 125.0625 149.082031 125.546875 C 148.804688 127.269531 147.441406 128.105469 146.234375 128.0625 C 144.914062 127.96875 144.101562 126.949219 144.078125 125.316406 C 144.09375 124.820312 143.671875 124.449219 143.167969 124.464844 C 142.671875 124.453125 142.300781 124.875 142.320312 125.378906 C 142.335938 126.164062 140.839844 127.1875 139.109375 127.253906 C 137.859375 127.265625 135.789062 126.886719 135.671875 123.796875 C 135.625 123.285156 135.207031 122.914062 134.761719 122.945312 C 134.253906 122.992188 133.882812 123.410156 133.910156 123.855469 C 133.925781 124.515625 133.679688 124.929688 133.167969 125.289062 C 131.992188 125.976562 129.863281 125.707031 128.503906 124.789062 C 127.765625 124.289062 126.984375 123.433594 127.148438 122.089844 C 127.191406 121.601562 126.851562 121.152344 126.367188 121.078125 C 125.875 121.035156 125.429688 121.378906 125.355469 121.863281 C 125.3125 122.355469 125.035156 122.636719 124.558594 122.816406 C 123.441406 123.234375 121.675781 122.730469 120.554688 121.707031 C 119.980469 121.179688 119.324219 120.316406 119.675781 119.113281 C 119.777344 118.632812 119.539062 118.144531 119.035156 118.035156 C 118.558594 117.933594 118.070312 118.171875 117.960938 118.679688 C 117.554688 120.28125 118.027344 121.851562 119.390625 123.054688 C 121.015625 124.496094 123.472656 125.117188 125.199219 124.488281 C 125.367188 124.429688 125.503906 124.363281 125.6875 124.246094 C 126.050781 125.015625 126.644531 125.734375 127.46875 126.257812 C 128.203125 126.757812 129.066406 127.097656 129.960938 127.292969 C 131.421875 127.605469 132.914062 127.488281 133.980469 126.871094 C 134.191406 126.761719 134.378906 126.613281 134.5625 126.496094 C 135.328125 128.007812 136.738281 129.152344 139.183594 129.082031 C 140.539062 129.03125 141.949219 128.550781 142.929688 127.761719 C 143.628906 129.160156 144.953125 129.820312 146.214844 129.902344 C 148.148438 130.039062 150.539062 128.644531 150.96875 125.921875 C 150.890625 125.40625 150.558594 124.925781 150.082031 124.824219 Z M 150.082031 124.824219 " fill-opacity="1" fill-rule="nonzero"/></g></g></g><g clip-path="url(#282618d152)"><g clip-path="url(#e69c7c80d1)"><g clip-path="url(#7db52cff23)"><path fill="#fad02c" d="M 730.40625 563.078125 C 735.726562 562.195312 738.472656 566.25 739.808594 569.339844 C 743.976562 579.007812 734.757812 593.320312 712.023438 598.386719 C 702.203125 600.597656 690.652344 600.9375 674.230469 596.84375 C 674.207031 597.078125 674.183594 597.203125 674.175781 597.28125 C 674.746094 597.855469 675.210938 598.550781 675.488281 599.351562 C 675.632812 599.714844 675.695312 600.070312 675.742188 600.472656 C 682.421875 598.019531 702.875 602.007812 708.121094 604.691406 C 709.277344 605.300781 709.976562 606.015625 710.402344 606.609375 C 710.566406 606.542969 710.699219 606.492188 710.863281 606.425781 C 715.359375 604.992188 738.703125 621.585938 739.710938 623.550781 C 740.683594 625.527344 730.371094 625.148438 725.589844 622.203125 C 719.65625 618.644531 711.726562 613.132812 709.78125 609.558594 C 706.539062 610.308594 694.582031 610.199219 687.101562 610.722656 C 683.652344 610.941406 677.808594 607.425781 675.351562 604.398438 C 675.035156 605.132812 674.683594 605.878906 674.214844 606.523438 C 675.511719 607.6875 676.148438 609.300781 676.066406 611.199219 C 675.988281 612.257812 675.753906 613.304688 675.335938 614.269531 C 675.679688 614.363281 676.078125 614.507812 676.445312 614.667969 C 676.539062 614.707031 676.675781 614.769531 676.722656 614.789062 C 676.226562 613.535156 676.402344 612.628906 677.363281 612.171875 C 683.226562 609.777344 700.257812 617.328125 705.199219 621.164062 C 706.1875 622.027344 706.804688 622.8125 707.089844 623.539062 C 707.253906 623.472656 707.453125 623.394531 707.648438 623.316406 C 712.28125 622.515625 727.859375 653.722656 727.808594 655.910156 C 727.761719 658.101562 716.359375 651.109375 713.273438 645.8125 C 710.078125 640.335938 705.972656 631.292969 705.851562 626.464844 C 702.785156 627.375 693.539062 626.230469 691.742188 625.722656 C 690.808594 625.480469 689.871094 625.128906 688.992188 624.832031 C 693.691406 630.363281 697.335938 636.5 698.757812 639.519531 C 702.328125 646.90625 704.148438 654.492188 704 659.121094 C 703.925781 659.226562 704.3125 673.089844 694.550781 683.921875 C 694.550781 683.921875 689.664062 690.617188 681.726562 696.234375 C 672.089844 697.566406 663.945312 696.027344 663.945312 696.027344 C 649.453125 694.789062 640.246094 684.414062 640.089844 684.398438 C 636.816406 681.121094 632.921875 674.359375 630.503906 666.515625 C 629.488281 663.371094 628.015625 656.375 627.582031 649.117188 C 627.136719 650.019531 626.703125 650.839844 626.1875 651.652344 C 625.1875 653.265625 619.261719 660.410156 616.402344 661.84375 C 619.617188 665.449219 622.773438 674.867188 624.222656 681.035156 C 625.628906 686.996094 622.046875 699.878906 620.527344 698.34375 C 618.992188 696.78125 609.042969 663.347656 612.9375 660.777344 C 613.109375 660.632812 613.273438 660.570312 613.496094 660.558594 C 613.207031 659.832031 613.148438 658.90625 613.25 657.53125 C 614.230469 651.351562 621.535156 634.214844 627.40625 631.933594 C 628.394531 631.542969 629.132812 632.164062 629.660156 633.402344 C 629.703125 633.308594 629.761719 633.171875 629.78125 633.125 C 629.941406 632.757812 630.125 632.457031 630.316406 632.074219 C 629.339844 631.625 628.402344 631.082031 627.6875 630.335938 C 626.324219 629.007812 625.6875 627.394531 625.835938 625.65625 C 624.976562 625.503906 624.222656 625.230469 623.554688 624.886719 C 623.757812 628.765625 621.925781 635.394531 619.308594 637.535156 C 613.507812 642.304688 604.847656 650.53125 601.96875 652.203125 C 602.996094 656.140625 600.949219 665.59375 599.085938 672.238281 C 597.589844 677.589844 590.304688 684.964844 589.707031 682.878906 C 589.066406 680.769531 594.792969 652.71875 599.039062 650.65625 C 599.203125 650.589844 599.335938 650.539062 599.5 650.472656 C 599.390625 649.71875 599.425781 648.75 599.851562 647.515625 C 601.875 641.953125 614.015625 625.113281 620.585938 622.289062 C 620.402344 622.015625 620.210938 621.636719 620.003906 621.296875 C 619.625 620.535156 619.488281 619.710938 619.546875 618.890625 C 619.453125 618.851562 619.367188 618.730469 619.203125 618.605469 C 610.023438 632.824219 601.433594 640.453125 592.695312 645.585938 C 572.808594 657.375 556.261719 653.253906 552.71875 643.339844 C 551.582031 640.171875 550.863281 635.273438 555.296875 632.339844 C 519.355469 643.851562 494.207031 600.085938 538.75 592.527344 C 560.800781 588.335938 593.902344 591.96875 614.59375 593.765625 C 615.050781 593.089844 615.628906 592.441406 616.277344 591.957031 C 612.695312 591.847656 607.324219 590.011719 604.761719 587.480469 C 599.410156 582.320312 597.136719 580.324219 596.773438 579.023438 C 594.359375 580.320312 588.738281 581.703125 583.054688 581.859375 C 577.445312 582.019531 568.257812 576.398438 566.058594 576.125 C 566.507812 573.128906 580.015625 574.757812 595.992188 576.855469 C 596.953125 576.972656 597.492188 577.175781 597.773438 577.410156 C 598.589844 577.160156 599.894531 577.292969 601.839844 577.78125 C 606.519531 579.128906 614.726562 582.550781 618.214844 586.464844 C 618.585938 585.289062 619.1875 584.214844 619.96875 583.296875 C 617.503906 583.128906 615.636719 581.773438 615.023438 578.203125 C 614.796875 576.769531 614.816406 575.277344 614.972656 573.84375 C 615.402344 569.636719 617.097656 566.03125 619.585938 563.179688 C 615.457031 561.691406 609.484375 549.957031 603.007812 548.976562 C 593.941406 547.609375 584.628906 551.484375 580.621094 550.59375 C 579.6875 550.351562 578.847656 549.769531 578.410156 548.953125 C 575.898438 543.851562 596.414062 543.089844 602.28125 545.417969 C 604.769531 546.414062 606.640625 547.007812 607.066406 547.601562 C 608.914062 549.382812 620.488281 556.613281 622.019531 560.769531 C 624.917969 558.480469 628.402344 556.988281 632.078125 556.566406 C 632.367188 556.527344 632.667969 556.519531 632.945312 556.449219 C 631.21875 552.371094 634.703125 539.144531 634.84375 536.613281 C 634.71875 535.824219 635.710938 534.097656 636.839844 531.75 C 639.527344 526.039062 654.992188 512.605469 656.671875 518 C 656.957031 518.917969 656.789062 519.933594 656.179688 520.707031 C 653.800781 524.125 644.425781 527.644531 638.746094 534.84375 C 634.679688 539.957031 638.394531 552.617188 636.367188 556.542969 C 640.132812 556.921875 643.824219 558.355469 647.027344 561.164062 C 648.121094 562.105469 649.101562 563.238281 649.972656 564.378906 C 651.964844 567.402344 651.53125 569.667969 649.882812 571.464844 C 651.078125 571.601562 652.253906 571.972656 653.328125 572.578125 C 653.195312 567.335938 656.839844 559.226562 659.34375 555.074219 C 660.476562 553.40625 661.308594 552.433594 662.058594 552.019531 C 662.105469 551.660156 662.410156 551.082031 662.976562 550.398438 C 673.136719 537.886719 681.921875 527.480469 684.3125 529.390625 C 682.929688 531.082031 680.003906 541.492188 675.839844 545.199219 C 671.554688 548.988281 666.527344 551.777344 663.890625 552.515625 C 664.554688 553.621094 664.195312 556.660156 663.847656 564.148438 C 663.644531 567.773438 661.0625 572.792969 658.511719 575.289062 C 659.3125 575.199219 660.148438 575.289062 660.976562 575.457031 C 674.839844 559.992188 696.488281 534.667969 715.453125 522.671875 C 718.402344 520.707031 721.15625 519.199219 723.742188 518.136719 C 723.84375 518.097656 724.007812 518.03125 724.105469 517.992188 C 754.4375 505.578125 761.6875 548.15625 730.40625 563.078125 Z M 703.570312 546.417969 C 703.476562 546.761719 703.816406 547.046875 704.074219 546.828125 C 707.082031 544.421875 716.941406 535 725.925781 531.636719 C 727.824219 530.960938 728.835938 528.3125 729.558594 525.625 C 729.832031 524.679688 731.835938 519.925781 726.507812 520.320312 C 724.222656 520.5 721.003906 522.078125 716.613281 524.84375 C 707.875 530.164062 709.5625 532.125 703.570312 546.417969 Z M 690.773438 559.671875 C 702.28125 557.59375 714.617188 556.257812 724.457031 550.15625 C 725.800781 549.320312 727.042969 548.222656 728.070312 546.976562 L 738.324219 534.695312 C 738.730469 534.1875 738.433594 533.429688 737.800781 533.375 C 718.144531 532.273438 706.199219 550.5625 690.773438 559.671875 Z M 665.882812 575.839844 C 670.597656 571.6875 676.917969 566.789062 682.722656 562.511719 C 684.492188 561.203125 686.375 560 688.292969 558.785156 C 696.675781 553.71875 706.578125 533.914062 702.917969 536.011719 C 690.269531 547.335938 673.511719 564.136719 665.882812 575.839844 Z M 667.464844 581.957031 C 683.675781 579.351562 696.039062 566.730469 710.382812 558.351562 C 695.398438 560.011719 673.171875 566.746094 666.785156 579.75 C 667.167969 580.433594 667.390625 581.1875 667.464844 581.957031 Z M 689.875 575.875 C 685.457031 577.316406 681.230469 579.710938 676.839844 581.980469 C 675.824219 582.496094 672.277344 585.460938 673.6875 586.046875 C 674.320312 586.292969 677.476562 585.996094 681.199219 584.636719 C 688.078125 582.109375 692.96875 579.753906 701.246094 575.757812 C 703.742188 574.273438 693.40625 574.703125 689.875 575.875 Z M 678.328125 588.441406 C 678.253906 589.117188 691.683594 588.148438 694.777344 587.113281 C 697.871094 586.082031 706.058594 577.433594 705.835938 576.492188 C 705.605469 575.519531 678.390625 587.730469 678.328125 588.441406 Z M 638.492188 567.589844 C 640.195312 569.582031 646.101562 569.796875 645.398438 566.382812 C 643.863281 565.195312 641.003906 565.949219 639.90625 563.753906 C 635.570312 555.488281 634.101562 564.375 638.492188 567.589844 Z M 619.351562 576.644531 C 621.191406 579.652344 625.371094 575.40625 625.214844 572.800781 C 626.289062 567.425781 619.070312 561.976562 621.550781 570.9375 C 622.277344 573.355469 619.6875 574.796875 619.351562 576.644531 Z M 612.945312 601.042969 C 599.390625 595.929688 578.539062 606.234375 566.503906 615.261719 C 582.730469 611.546875 600.324219 612.246094 613.957031 603.121094 C 613.453125 602.519531 613.132812 601.808594 612.945312 601.042969 Z M 612.15625 610.308594 C 612.816406 608.902344 608.167969 609.179688 607.078125 609.496094 C 602.332031 610.878906 597.597656 611.992188 593.390625 613.960938 C 590.046875 615.511719 582.195312 622.3125 585.015625 621.652344 C 593.761719 618.839844 598.964844 617.277344 605.710938 614.417969 C 609.417969 612.914062 611.890625 610.984375 612.15625 610.308594 Z M 582.214844 625.351562 C 582.707031 626.109375 594.621094 626.882812 597.550781 625.53125 C 600.511719 624.171875 610.972656 615.691406 610.457031 615.246094 C 609.90625 614.816406 581.699219 624.527344 582.214844 625.351562 Z M 581.710938 602.808594 C 564.195312 606.726562 542.96875 601.558594 529.457031 615.703125 C 529.003906 616.1875 529.289062 616.914062 529.980469 617.019531 L 545.828125 618.980469 C 547.429688 619.1875 549.085938 619.140625 550.636719 618.832031 C 561.984375 616.628906 571.894531 609.167969 581.710938 602.808594 Z M 582.882812 600.476562 C 585.066406 600.035156 587.21875 599.601562 589.492188 599.386719 C 596.710938 598.589844 604.613281 597.785156 610.890625 597.589844 C 597.3125 594.238281 573.605469 593.480469 556.648438 593.902344 C 552.53125 594.847656 573.324219 602.582031 582.882812 600.476562 Z M 530.128906 604.503906 C 532.496094 605.96875 535.042969 607.210938 536.894531 606.402344 C 545.714844 602.722656 559.363281 602.886719 563.222656 602.539062 C 563.558594 602.519531 563.632812 602.035156 563.3125 601.894531 C 549.128906 595.582031 549.019531 592.996094 539.035156 595.078125 C 533.945312 596.0625 530.515625 597.113281 528.722656 598.546875 C 524.558594 601.871094 529.269531 603.96875 530.128906 604.503906 Z M 530.476562 610.386719 C 532.058594 608.808594 531.996094 608.261719 530.054688 607.203125 C 524.925781 604.429688 519.316406 605.164062 517.886719 608.964844 C 516.460938 612.769531 517.183594 615.265625 518.539062 616.671875 C 520.625 618.96875 524.421875 616.25 530.476562 610.386719 Z M 538.199219 629.046875 C 540.601562 628.097656 543.53125 625.300781 545.089844 623.082031 C 545.542969 622.40625 545.113281 621.511719 544.285156 621.34375 L 528.019531 619.28125 C 526.148438 619.070312 524.285156 619.84375 523.261719 621.394531 C 522.324219 623.554688 524.25 626.296875 527.246094 627.816406 C 528.441406 628.523438 535.699219 630.035156 538.199219 629.046875 Z M 588.144531 614.167969 C 575.933594 616.292969 566.234375 617.460938 552.492188 620.726562 C 551 621.089844 549.601562 621.792969 548.460938 622.855469 C 544.945312 625.996094 540.425781 630.832031 540.984375 630.992188 C 546.023438 632.273438 576.050781 628.816406 588.144531 614.167969 Z M 557.789062 638.742188 C 568.390625 637.445312 589.035156 635.757812 593.597656 628.429688 C 593.523438 626.707031 581.402344 628.492188 576.007812 628.222656 C 574.015625 628.097656 572.023438 628.351562 570.082031 628.929688 C 566.023438 630.117188 562.386719 630.640625 558.652344 632.839844 C 557.679688 633.457031 556.703125 634.261719 555.816406 635.296875 C 554.609375 636.765625 555.796875 639 557.789062 638.742188 Z M 575.0625 647.871094 C 576.625 646.914062 584.113281 638.808594 583.160156 637.738281 C 582.203125 636.667969 566.0625 640.121094 558.144531 641.269531 C 556.164062 641.558594 555.339844 643.902344 556.648438 645.289062 C 559.519531 648.308594 563.292969 649.480469 567.269531 649.8125 C 570.09375 650.027344 572.8125 649.296875 575.0625 647.871094 Z M 601.363281 625.546875 L 587.574219 636.296875 C 587.027344 636.742188 586.570312 637.226562 586.121094 637.824219 L 579.304688 648.101562 C 578.792969 648.835938 584.960938 648.453125 590.933594 642.96875 C 595.867188 638.3125 599.152344 631.222656 601.363281 625.546875 Z M 617.242188 616.335938 C 616.605469 615.976562 616.085938 615.535156 615.589844 615.046875 C 614.4375 615.5 612.546875 616.589844 609.59375 618.941406 C 607.242188 620.785156 605.351562 623.132812 604.007812 625.796875 L 597.488281 638.851562 C 602.394531 636.53125 615.535156 621.160156 617.242188 616.335938 Z M 615.335938 604.785156 C 615.054688 604.550781 614.792969 604.273438 614.511719 604.042969 C 614.09375 605.007812 613.964844 606.125 613.96875 607.191406 C 614.277344 606.34375 614.703125 605.492188 615.335938 604.785156 Z M 619.808594 617.339844 C 619.542969 617.25 619.273438 617.246094 619.078125 617.132812 C 619.351562 617.632812 619.507812 618.027344 619.640625 618.355469 C 619.652344 618.007812 619.714844 617.679688 619.808594 617.339844 Z M 699.976562 665.207031 C 699.785156 665.585938 699.453125 665.910156 698.84375 666 C 696.914062 666.417969 695.371094 664.246094 695.371094 664.246094 C 695.371094 664.246094 695.421875 666.207031 692.882812 666.90625 C 690.371094 667.671875 689.425781 665.761719 689.425781 665.761719 C 689.425781 665.761719 689.316406 667.898438 687.269531 668.785156 C 685.15625 669.695312 684.136719 668.460938 683.449219 667.78125 C 683.058594 670.640625 679.894531 671.589844 677.703125 669.710938 C 677.394531 672.003906 674.167969 673.28125 672.351562 672.4375 C 671.570312 674.308594 668.375 675.570312 666.582031 674.109375 C 666.28125 677.011719 663.324219 678.484375 661.070312 676.632812 C 661.035156 677.601562 661.132812 679.199219 658.96875 679.980469 C 656.804688 680.757812 655.332031 679.246094 655.332031 679.246094 C 655.332031 679.246094 655.949219 681.289062 653.589844 682.449219 C 651.234375 683.609375 649.957031 682.210938 649.957031 682.210938 C 649.957031 682.210938 650.347656 684.835938 648.621094 685.859375 C 648.101562 686.179688 647.609375 686.1875 647.253906 686.058594 C 652.3125 690.191406 660.164062 693.488281 666.425781 693.828125 C 668.5625 693.9375 670.441406 692.242188 670.355469 690.101562 C 670.355469 689.910156 670.351562 689.800781 670.285156 689.636719 C 671.492188 690.375 674.023438 690.136719 675.585938 689.175781 C 677.121094 688.152344 677.507812 686.625 677.53125 685.628906 C 678.28125 686.28125 679.589844 687.175781 681.375 686.886719 C 683.199219 686.585938 685.183594 684.960938 685.554688 683.59375 C 685.6875 683.734375 685.769531 683.851562 685.824219 683.984375 C 687.257812 685.589844 689.753906 685.554688 691.238281 684.015625 C 695.605469 679.46875 699.109375 671.683594 699.976562 665.207031 Z M 679.363281 626.46875 C 679.453125 627.269531 679.503906 629.421875 677.496094 630.214844 C 674.296875 631.554688 671.730469 628.535156 671.335938 628.308594 C 671.335938 628.5 671.609375 631.019531 668.726562 632.007812 C 666.253906 632.488281 665.128906 631.375 663.8125 629.875 C 663.960938 630.539062 663.90625 631.171875 663.621094 631.703125 C 662.90625 633.546875 660.804688 634.492188 658.867188 634.117188 C 658.164062 633.976562 657.429688 633.65625 656.808594 633.140625 C 656.71875 633.976562 656.386719 634.679688 655.972656 635.261719 C 654.816406 636.863281 652.636719 637.609375 650.851562 636.753906 C 650.320312 636.46875 649.8125 636.136719 649.464844 635.550781 C 649.609375 637.550781 649.453125 639.171875 647.335938 640.46875 C 644.605469 641.738281 643.066406 639.679688 642.902344 639.554688 C 642.746094 639.921875 642.886719 643.941406 639.714844 645.15625 C 637.648438 645.898438 636.261719 644.3125 635.789062 643.699219 C 635.636719 644.371094 634.59375 647.984375 632.488281 648.4375 C 631.472656 652.988281 633.628906 663.832031 634.046875 664.503906 C 634.398438 665.203125 635.046875 665.785156 636.035156 665.394531 C 638.078125 664.585938 638.144531 662.351562 638.183594 662.449219 C 638.667969 663.09375 639.703125 663.21875 640.851562 662.652344 C 642.957031 661.628906 643.226562 659.234375 643.226562 659.234375 C 643.707031 659.960938 644.652344 660.425781 646.285156 659.550781 C 647.871094 658.847656 648.488281 657.039062 648.089844 656.320312 C 649.171875 657.226562 650.441406 657.066406 651.683594 656.269531 C 652.957031 655.539062 653.332031 654.664062 653.695312 653.265625 C 653.695312 653.265625 654.859375 654.671875 656.792969 653.792969 C 658.730469 652.914062 659.585938 650.9375 659.304688 650.132812 C 659.304688 650.132812 661.007812 652.125 663.921875 651.125 C 666.71875 649.828125 666.609375 647.242188 666.609375 647.242188 C 666.996094 647.929688 668.917969 648.84375 670.945312 648.195312 C 672.957031 647.511719 672.847656 645.691406 672.847656 645.691406 C 674 646.492188 674.925781 646.8125 676.367188 646.507812 C 677.792969 646.171875 678.84375 645.453125 679.023438 644.085938 C 679.238281 644.914062 680.925781 645.808594 682.550781 645.207031 C 684.339844 644.726562 684.730469 643.695312 684.5625 642.886719 C 684.5625 642.886719 686.398438 644.445312 688.632812 643.75 C 689.859375 643.382812 690.566406 642.570312 690.441406 641.777344 C 690.402344 641.679688 692.4375 643.160156 694.023438 642.457031 C 695.675781 641.730469 694.191406 639.039062 694.125 638.875 C 687.792969 628.921875 685.261719 627.523438 684.996094 627.628906 C 683.132812 628.785156 679.867188 626.878906 679.363281 626.46875 Z M 663.160156 585.984375 C 663.628906 585.148438 664.109375 583.472656 663.410156 581.617188 C 663.097656 580.824219 662.589844 580.113281 661.902344 579.625 C 660.242188 578.414062 658.335938 578.597656 657.03125 579.148438 C 656.210938 579.476562 655.582031 579.914062 655.300781 580.253906 C 655.113281 579.492188 653.851562 575.722656 648.816406 575.121094 C 647.949219 575.046875 647.195312 575.15625 646.570312 575.402344 C 644.957031 576.039062 644.070312 577.457031 643.902344 578.09375 C 643.558594 577.507812 642.289062 575.648438 639.269531 576.003906 C 638.804688 576.074219 638.414062 576.152344 638.078125 576.359375 C 636.03125 577.246094 635.714844 579.808594 635.726562 580.605469 C 635.273438 579.945312 633.671875 578.105469 630.933594 579.265625 C 630.667969 579.367188 630.472656 579.445312 630.167969 579.640625 C 627.210938 581.308594 628.179688 584.046875 628.648438 585.042969 C 628 584.460938 626.453125 583.433594 624.480469 584.214844 C 623.921875 584.4375 623.203125 584.835938 622.574219 585.464844 C 619.4375 588.496094 621.535156 593.035156 621.921875 593.722656 C 621.457031 593.601562 620.195312 593.492188 618.96875 594.050781 C 617.980469 594.441406 617 595.328125 616.34375 597.035156 C 615.433594 601.277344 620.039062 603.683594 620.039062 603.683594 C 620.039062 603.683594 616.0625 607.199219 617.648438 611.296875 C 618.363281 613.109375 621.636719 615.128906 625.222656 613.902344 C 625.222656 613.902344 621.09375 616.257812 623.289062 620.074219 C 625.449219 623.90625 630.261719 622.308594 630.261719 622.308594 C 630.261719 622.308594 626.988281 627.222656 631.683594 628.984375 C 634.359375 629.980469 635.859375 628.476562 636.742188 627.058594 C 636.808594 627.03125 636.84375 627.019531 636.90625 626.992188 C 637.378906 626.160156 637.605469 625.382812 637.695312 625.042969 C 638.183594 625.5 640.3125 627.515625 643.257812 627.070312 C 646.203125 626.628906 647.714844 624.394531 647.675781 622.847656 C 647.742188 622.824219 647.773438 622.808594 647.839844 622.785156 C 647.8125 622.71875 647.867188 622.660156 647.839844 622.59375 C 648.429688 623.503906 650.242188 625.488281 653.171875 624.523438 C 656.394531 623.4375 656.28125 620.359375 656.167969 619.492188 C 656.230469 619.464844 656.265625 619.453125 656.332031 619.425781 C 657.007812 619.882812 659.441406 621.320312 662.292969 619.582031 C 663.886719 618.609375 664.4375 617.210938 664.53125 616.105469 C 664.597656 616.078125 664.628906 616.066406 664.695312 616.039062 C 664.8125 615.082031 664.625 614.316406 664.507812 614.019531 C 665.3125 614.425781 668.679688 615.722656 670.757812 613.757812 C 670.824219 613.730469 670.824219 613.730469 670.855469 613.71875 C 671.113281 613.5 671.378906 613.207031 671.570312 612.828125 C 674.285156 608.4375 669.289062 606.871094 669.289062 606.871094 C 669.289062 606.871094 673.035156 604.019531 671.867188 600.785156 C 670.714844 597.582031 667.964844 597.453125 667.964844 597.453125 C 667.964844 597.453125 671.863281 594.996094 670.277344 590.40625 C 668.878906 586.007812 663.160156 585.984375 663.160156 585.984375 Z M 673.328125 595.714844 C 673.195312 595.957031 673.082031 596.152344 672.9375 596.363281 C 673.238281 596.546875 673.574219 596.722656 673.808594 596.933594 C 673.625 596.660156 673.507812 596.175781 673.328125 595.714844 Z M 670.210938 584.945312 C 669.546875 584.140625 668.644531 583.394531 667.660156 583.023438 C 667.679688 583.359375 667.644531 583.753906 667.5625 584.125 C 668.507812 584.210938 669.433594 584.527344 670.210938 584.945312 Z M 703.804688 596.761719 L 690.121094 591.699219 C 687.363281 590.695312 684.367188 590.242188 681.355469 590.519531 C 677.640625 590.84375 675.523438 591.261719 674.386719 591.75 C 674.371094 592.480469 674.28125 593.125 674.0625 593.824219 C 678.621094 596.210938 698.753906 598.417969 703.804688 596.761719 Z M 723.511719 591.0625 L 711.507812 588.230469 C 710.835938 588.078125 710.082031 587.996094 709.402344 588.109375 L 691.992188 589.703125 C 697.484375 592.328125 704.730469 595.253906 711.566406 595.214844 C 719.59375 595.203125 724.367188 591.296875 723.511719 591.0625 Z M 734.273438 571.605469 C 727.738281 576.25 713.636719 584.761719 713.609375 586.140625 C 713.644531 587.574219 724.640625 588.332031 726.449219 587.996094 C 729.066406 587.496094 731.613281 586.144531 733.429688 584.09375 C 736.152344 581.074219 738.066406 577.726562 738.078125 573.53125 C 738.105469 571.578125 735.890625 570.398438 734.273438 571.605469 Z M 728.125 565.773438 C 723.859375 566.734375 720.851562 568.839844 717.109375 570.738281 C 715.3125 571.679688 713.730469 572.875 712.304688 574.277344 C 708.550781 578.160156 698.492188 585.152344 699.617188 586.457031 C 707.980469 588.75 724.152344 575.839844 732.789062 569.488281 C 734.382812 568.324219 733.753906 565.871094 731.792969 565.617188 C 730.53125 565.507812 729.234375 565.601562 728.125 565.773438 Z M 728.753906 551.582031 C 727.21875 551.65625 725.679688 551.996094 724.355469 552.789062 C 712.101562 559.808594 704.210938 565.554688 693.863281 572.390625 C 712.640625 574.832031 736.917969 556.734375 739.757812 552.371094 C 740.101562 551.894531 733.484375 551.425781 728.753906 551.582031 Z M 746.183594 533.300781 C 744.375 532.871094 742.429688 533.527344 741.265625 535.015625 L 730.808594 547.644531 C 730.261719 548.28125 730.605469 549.25 731.414062 549.464844 C 734.0625 550.09375 738.082031 550.0625 740.519531 549.101562 C 742.953125 548.136719 747.28125 542.042969 747.757812 540.75 C 748.882812 537.527344 748.339844 534.234375 746.183594 533.300781 Z M 741.574219 520.492188 C 737.933594 518.695312 733.339844 522 731.480469 527.496094 C 730.742188 529.578125 731.117188 530.039062 733.351562 530.109375 C 741.789062 530.273438 746.40625 529.628906 746.449219 526.566406 C 746.398438 524.605469 745.183594 522.304688 741.574219 520.492188 Z M 658.855469 585.78125 C 658.355469 586.054688 658.117188 586.605469 658.359375 587.121094 C 659.199219 588.957031 658.417969 590.640625 657.226562 591.378906 C 655.886719 592.136719 654.449219 591.675781 653.378906 590.117188 C 653.070312 589.628906 652.425781 589.542969 651.953125 589.882812 C 651.464844 590.1875 651.378906 590.832031 651.71875 591.308594 C 652.242188 592.054688 651.453125 594.003906 649.824219 595.179688 C 648.625 595.996094 646.378906 596.960938 644.28125 594.058594 C 643.90625 593.597656 643.265625 593.507812 642.855469 593.824219 C 642.394531 594.195312 642.304688 594.839844 642.621094 595.25 C 643.058594 595.875 643.089844 596.433594 642.824219 597.113281 C 642.128906 598.53125 639.902344 599.636719 637.996094 599.628906 C 636.964844 599.621094 635.660156 599.296875 634.953125 597.902344 C 634.679688 597.398438 634.0625 597.1875 633.550781 597.429688 C 633.046875 597.703125 632.835938 598.320312 633.078125 598.832031 C 633.351562 599.335938 633.265625 599.789062 632.921875 600.265625 C 632.109375 601.386719 630.082031 602.035156 628.339844 601.773438 C 627.449219 601.632812 626.257812 601.226562 625.824219 599.835938 C 625.617188 599.308594 625.070312 598.992188 624.511719 599.210938 C 623.960938 599.355469 623.667969 599.964844 623.890625 600.523438 C 624.527344 602.328125 625.996094 603.539062 628.085938 603.816406 C 630.582031 604.164062 633.351562 603.183594 634.613281 601.464844 C 634.738281 601.300781 634.832031 601.148438 634.929688 600.917969 C 635.777344 601.421875 636.8125 601.738281 637.945312 601.707031 C 638.976562 601.71875 640.027344 601.492188 641.015625 601.101562 C 642.628906 600.464844 643.992188 599.390625 644.628906 598.113281 C 644.761719 597.871094 644.847656 597.605469 644.945312 597.378906 C 646.660156 598.335938 648.753906 598.539062 651.074219 596.894531 C 652.34375 595.972656 653.402344 594.605469 653.839844 593.210938 C 655.414062 594.113281 657.117188 593.894531 658.390625 593.164062 C 660.34375 592.046875 661.753906 589.167969 660.417969 586.265625 C 660.011719 585.816406 659.382812 585.574219 658.855469 585.78125 Z M 664.09375 600.851562 C 663.59375 601.125 663.355469 601.675781 663.59375 602.191406 C 664.4375 604.027344 663.65625 605.710938 662.464844 606.449219 C 661.125 607.207031 659.6875 606.746094 658.617188 605.1875 C 658.308594 604.699219 657.664062 604.613281 657.191406 604.953125 C 656.703125 605.257812 656.617188 605.902344 656.957031 606.378906 C 657.480469 607.125 656.691406 609.074219 655.0625 610.25 C 653.863281 611.070312 651.617188 612.03125 649.519531 609.128906 C 649.144531 608.667969 648.5 608.578125 648.09375 608.894531 C 647.632812 609.265625 647.542969 609.910156 647.859375 610.320312 C 648.296875 610.945312 648.328125 611.503906 648.0625 612.183594 C 647.367188 613.601562 645.140625 614.707031 643.234375 614.699219 C 642.203125 614.691406 640.894531 614.367188 640.191406 612.972656 C 639.917969 612.46875 639.300781 612.257812 638.785156 612.5 C 638.285156 612.773438 638.074219 613.390625 638.316406 613.902344 C 638.589844 614.40625 638.503906 614.859375 638.160156 615.335938 C 637.347656 616.457031 635.320312 617.109375 633.578125 616.84375 C 632.683594 616.703125 631.496094 616.296875 631.0625 614.90625 C 630.851562 614.378906 630.308594 614.0625 629.75 614.28125 C 629.222656 614.492188 628.90625 615.035156 629.128906 615.59375 C 629.765625 617.398438 631.234375 618.609375 633.320312 618.886719 C 635.816406 619.234375 638.589844 618.253906 639.851562 616.535156 C 639.976562 616.371094 640.066406 616.21875 640.167969 615.988281 C 641.015625 616.492188 642.050781 616.808594 643.183594 616.777344 C 644.214844 616.789062 645.265625 616.5625 646.253906 616.171875 C 647.867188 615.535156 649.230469 614.460938 649.867188 613.183594 C 649.996094 612.941406 650.085938 612.675781 650.183594 612.449219 C 651.894531 613.410156 653.992188 613.609375 656.3125 611.964844 C 657.582031 611.042969 658.640625 609.675781 659.078125 608.28125 C 660.652344 609.183594 662.355469 608.964844 663.625 608.234375 C 665.582031 607.117188 666.992188 604.238281 665.65625 601.335938 C 665.25 600.890625 664.621094 600.644531 664.09375 600.851562 Z M 664.09375 600.851562 " fill-opacity="1" fill-rule="nonzero"/></g></g></g><g clip-path="url(#7b0f0ba8df)"><g clip-path="url(#7e04aeb52b)"><g clip-path="url(#40d5c2959a)"><path fill="#fad02c" d="M 242.855469 1110.238281 C 246.789062 1112.011719 246.8125 1115.933594 246.332031 1118.585938 C 244.8125 1126.878906 232.328125 1132.324219 214.960938 1125.605469 C 207.449219 1122.71875 199.617188 1117.816406 190.511719 1107.796875 C 190.394531 1107.945312 190.320312 1108.015625 190.28125 1108.066406 C 190.40625 1108.703125 190.40625 1109.371094 190.234375 1110.027344 C 190.171875 1110.335938 190.054688 1110.601562 189.90625 1110.886719 C 195.4375 1112.21875 207.269531 1123.957031 209.570312 1128.078125 C 210.066406 1128.996094 210.214844 1129.78125 210.234375 1130.367188 C 210.375 1130.398438 210.484375 1130.421875 210.621094 1130.449219 C 214.25 1131.488281 222.410156 1152.914062 222.207031 1154.667969 C 221.976562 1156.417969 215.289062 1151.589844 213.417969 1147.5 C 211.046875 1142.496094 208.222656 1135.300781 208.511719 1132.058594 C 206.023438 1131.117188 198.121094 1125.734375 192.914062 1122.761719 C 190.519531 1121.378906 188.195312 1116.4375 187.90625 1113.332031 C 187.367188 1113.679688 186.804688 1114.023438 186.207031 1114.242188 C 186.554688 1115.59375 186.261719 1116.953125 185.359375 1118.179688 C 184.839844 1118.851562 184.222656 1119.445312 183.515625 1119.902344 C 183.699219 1120.117188 183.902344 1120.390625 184.074219 1120.660156 C 184.121094 1120.730469 184.183594 1120.828125 184.207031 1120.863281 C 184.433594 1119.808594 184.949219 1119.28125 185.792969 1119.40625 C 190.757812 1120.414062 198.730469 1133.003906 200.316406 1137.753906 C 200.589844 1138.769531 200.648438 1139.566406 200.519531 1140.179688 C 200.65625 1140.207031 200.824219 1140.242188 200.988281 1140.277344 C 204.425781 1141.800781 200.9375 1169.515625 199.933594 1170.953125 C 198.929688 1172.390625 194.449219 1162.667969 194.746094 1157.769531 C 195.054688 1152.699219 196.332031 1144.851562 198.394531 1141.578125 C 195.953125 1140.824219 190.3125 1135.957031 189.34375 1134.820312 C 188.828125 1134.246094 188.359375 1133.59375 187.910156 1133.003906 C 188.578125 1138.777344 188.28125 1144.484375 187.886719 1147.128906 C 186.980469 1153.636719 184.828125 1159.5 182.671875 1162.519531 C 182.578125 1162.558594 176.679688 1171.96875 165.382812 1174.855469 C 165.382812 1174.855469 159.164062 1177.144531 151.390625 1177.363281 C 144.390625 1173.976562 139.65625 1169.332031 139.65625 1169.332031 C 130.566406 1162.070312 129.050781 1151.070312 128.953125 1150.988281 C 128.226562 1147.351562 128.640625 1141.117188 130.515625 1134.816406 C 131.234375 1132.269531 133.359375 1126.953125 136.289062 1121.925781 C 135.597656 1122.328125 134.941406 1122.679688 134.238281 1122.992188 C 132.859375 1123.625 125.746094 1125.753906 123.207031 1125.441406 C 123.746094 1129.269531 121.664062 1136.949219 119.890625 1141.703125 C 118.183594 1146.296875 110.082031 1153.292969 109.753906 1151.597656 C 109.425781 1149.875 117.648438 1123.175781 121.375 1123.191406 C 121.554688 1123.171875 121.691406 1123.203125 121.847656 1123.292969 C 121.976562 1122.683594 122.347656 1122.035156 123.027344 1121.167969 C 126.421875 1117.484375 138.882812 1109.308594 143.800781 1110.390625 C 144.628906 1110.570312 144.847656 1111.3125 144.648438 1112.375 C 144.714844 1112.328125 144.816406 1112.265625 144.851562 1112.242188 C 145.117188 1112.066406 145.375 1111.949219 145.671875 1111.78125 C 145.222656 1111.046875 144.839844 1110.265625 144.695312 1109.453125 C 144.378906 1107.964844 144.671875 1106.605469 145.542969 1105.515625 C 145.039062 1105.027344 144.65625 1104.511719 144.363281 1103.984375 C 142.777344 1106.660156 138.617188 1110.265625 135.929688 1110.53125 C 129.953125 1111.132812 120.546875 1112.769531 117.890625 1112.605469 C 116.824219 1115.6875 111.265625 1121.082031 107.078125 1124.679688 C 103.707031 1127.582031 95.59375 1129.265625 96.121094 1127.609375 C 96.628906 1125.917969 112.886719 1109.761719 116.625 1110.277344 C 116.761719 1110.304688 116.875 1110.328125 117.011719 1110.359375 C 117.273438 1109.804688 117.726562 1109.179688 118.558594 1108.542969 C 122.375 1105.734375 137.921875 1099.902344 143.542969 1100.9375 C 143.542969 1100.675781 143.585938 1100.335938 143.597656 1100.019531 C 143.683594 1099.339844 143.957031 1098.734375 144.359375 1098.210938 C 144.316406 1098.144531 144.3125 1098.027344 144.261719 1097.871094 C 131.84375 1103.269531 122.746094 1104.539062 114.65625 1104.078125 C 96.199219 1103.105469 87.023438 1093.011719 89.066406 1084.835938 C 89.714844 1082.214844 91.410156 1078.632812 95.660156 1078.648438 C 66.652344 1070.359375 69.347656 1030.027344 102.324219 1044.765625 C 118.851562 1051.765625 139.253906 1068.882812 152.21875 1079.265625 C 152.820312 1079.019531 153.492188 1078.84375 154.136719 1078.808594 C 151.804688 1077.148438 149.046875 1073.539062 148.46875 1070.714844 C 147.199219 1064.898438 146.570312 1062.5625 146.910156 1061.53125 C 144.726562 1061.324219 140.375 1059.75 136.523438 1057.328125 C 132.722656 1054.945312 129.109375 1047.121094 127.765625 1045.960938 C 129.394531 1044.164062 137.65625 1051.246094 147.351562 1059.738281 C 147.9375 1060.242188 148.203125 1060.617188 148.289062 1060.898438 C 148.941406 1061.097656 149.75 1061.761719 150.828125 1062.953125 C 153.34375 1065.929688 157.28125 1071.851562 157.863281 1076.011719 C 158.632812 1075.390625 159.511719 1074.941406 160.4375 1074.675781 C 158.871094 1073.46875 158.230469 1071.738281 159.40625 1069.085938 C 159.894531 1068.03125 160.570312 1067.042969 161.308594 1066.160156 C 163.460938 1063.546875 166.1875 1061.898438 169.109375 1061.101562 C 167.023438 1058.273438 168.257812 1047.804688 164.386719 1044.273438 C 158.964844 1039.339844 151.050781 1037.785156 148.78125 1035.414062 C 148.269531 1034.839844 147.96875 1034.078125 148.039062 1033.339844 C 148.632812 1028.824219 162.613281 1037.425781 165.484375 1041.578125 C 166.695312 1043.347656 167.679688 1044.574219 167.699219 1045.160156 C 168.132812 1047.167969 172.625 1057.125 171.796875 1060.574219 C 174.742188 1060.335938 177.71875 1060.890625 180.351562 1062.238281 C 180.5625 1062.339844 180.765625 1062.472656 180.980469 1062.546875 C 181.640625 1059.0625 189.828125 1051.796875 191.042969 1050.171875 C 191.3125 1049.589844 192.738281 1048.878906 194.53125 1047.8125 C 198.855469 1045.203125 215.101562 1043.117188 213.820312 1047.457031 C 213.605469 1048.195312 213.042969 1048.796875 212.292969 1049.042969 C 209.195312 1050.265625 201.398438 1048.445312 194.429688 1050.722656 C 189.453125 1052.324219 186.304688 1062.414062 183.214844 1064.128906 C 185.550781 1066.050781 187.367188 1068.648438 188.253906 1071.941406 C 188.5625 1073.054688 188.714844 1074.246094 188.785156 1075.394531 C 188.769531 1078.292969 187.476562 1079.609375 185.582031 1080.074219 C 186.316406 1080.695312 186.933594 1081.464844 187.378906 1082.34375 C 189.617188 1078.792969 195.640625 1075.007812 199.148438 1073.351562 C 200.640625 1072.742188 201.625 1072.460938 202.308594 1072.519531 C 202.5 1072.300781 202.957031 1072.050781 203.636719 1071.847656 C 215.949219 1068.019531 226.410156 1064.984375 227.152344 1067.320312 C 225.480469 1067.832031 218.914062 1073.472656 214.5 1074.09375 C 209.96875 1074.714844 205.390625 1074.34375 203.308594 1073.664062 C 203.257812 1074.699219 201.671875 1076.5625 198.117188 1081.398438 C 196.375 1083.722656 192.429688 1085.925781 189.625 1086.453125 C 190.195312 1086.75 190.710938 1087.179688 191.1875 1087.660156 C 207.269531 1083.507812 232.90625 1076.246094 250.84375 1076.671875 C 253.679688 1076.667969 256.179688 1076.886719 258.367188 1077.328125 C 258.453125 1077.347656 258.589844 1077.375 258.671875 1077.394531 C 284.355469 1082.585938 270.28125 1114.179688 242.855469 1110.238281 Z M 232.402344 1087.21875 C 232.1875 1087.40625 232.289062 1087.746094 232.554688 1087.71875 C 235.621094 1087.449219 246.363281 1085.546875 253.828125 1087.292969 C 255.394531 1087.6875 257.238281 1086.371094 258.914062 1084.902344 C 259.515625 1084.394531 262.957031 1082.113281 259.242188 1080.011719 C 257.636719 1079.117188 254.796875 1078.738281 250.652344 1078.632812 C 242.476562 1078.300781 242.730469 1080.355469 232.402344 1087.21875 Z M 218.007812 1090.371094 C 226.585938 1094.097656 235.382812 1098.683594 244.632812 1098.984375 C 245.898438 1099.023438 247.210938 1098.84375 248.449219 1098.46875 L 260.71875 1094.835938 C 261.214844 1094.679688 261.351562 1094.042969 260.957031 1093.726562 C 248.371094 1084.265625 232.3125 1091.148438 218.007812 1090.371094 Z M 194.28125 1090.09375 C 199.257812 1089.421875 205.636719 1088.960938 211.398438 1088.6875 C 213.152344 1088.601562 214.9375 1088.636719 216.753906 1088.679688 C 224.578125 1089.023438 239.953125 1080.222656 236.585938 1079.996094 C 223.148438 1081.925781 204.546875 1085.679688 194.28125 1090.09375 Z M 192.621094 1094.871094 C 204.554688 1100.335938 218.378906 1097.414062 231.636719 1098.199219 C 220.933594 1092.652344 203.164062 1087.269531 193.144531 1093.097656 C 193.097656 1093.726562 192.910156 1094.324219 192.621094 1094.871094 Z M 210.222656 1100.769531 C 206.644531 1099.769531 202.769531 1099.488281 198.84375 1099.050781 C 197.9375 1098.945312 194.265625 1099.347656 194.945312 1100.363281 C 195.253906 1100.804688 197.484375 1102.007812 200.5625 1102.757812 C 206.261719 1104.125 210.558594 1104.730469 217.835938 1105.738281 C 220.152344 1105.859375 213.089844 1101.558594 210.222656 1100.769531 Z M 196.964844 1104.015625 C 196.617188 1104.433594 205.980469 1109.753906 208.492188 1110.4375 C 211.007812 1111.121094 220.292969 1108.992188 220.5625 1108.269531 C 220.839844 1107.515625 197.320312 1103.570312 196.964844 1104.015625 Z M 179.726562 1072.433594 C 179.972656 1074.515625 183.808594 1077.285156 184.855469 1074.695312 C 184.359375 1073.222656 182.125 1072.453125 182.367188 1070.503906 C 183.152344 1063.070312 178.234375 1068.339844 179.726562 1072.433594 Z M 162.980469 1069.96875 C 162.867188 1072.789062 167.53125 1071.816406 168.585938 1070.011719 C 171.683594 1066.90625 169.300781 1060.070312 166.972656 1067.140625 C 166.382812 1069.074219 164.023438 1068.886719 162.980469 1069.96875 Z M 147.890625 1083.386719 C 141.144531 1073.960938 122.703125 1071.570312 110.695312 1072.242188 C 123.136719 1076.972656 134.527344 1085.246094 147.640625 1085.21875 C 147.570312 1084.59375 147.675781 1083.980469 147.890625 1083.386719 Z M 143.253906 1089.210938 C 144.316406 1088.566406 141.105469 1086.6875 140.234375 1086.414062 C 136.46875 1085.230469 132.824219 1083.867188 129.152344 1083.3125 C 126.242188 1082.859375 118 1083.90625 120.171875 1084.71875 C 127.234375 1086.730469 131.390625 1088 137.144531 1089.089844 C 140.277344 1089.730469 142.777344 1089.542969 143.253906 1089.210938 Z M 116.667969 1085.941406 C 116.65625 1086.664062 124.238281 1092.46875 126.785156 1092.871094 C 129.359375 1093.277344 140.078125 1092.273438 139.929688 1091.746094 C 139.753906 1091.214844 116.691406 1085.164062 116.667969 1085.941406 Z M 126.335938 1070.695312 C 112.945312 1065.527344 101.125 1052.660156 85.863281 1056.089844 C 85.34375 1056.210938 85.210938 1056.820312 85.625 1057.199219 L 95.292969 1065.539062 C 96.265625 1066.386719 97.390625 1067.09375 98.558594 1067.574219 C 107.082031 1071.144531 116.984375 1070.574219 126.335938 1070.695312 Z M 128.148438 1069.660156 C 129.796875 1070.335938 131.417969 1071 133.027344 1071.871094 C 138.183594 1074.542969 143.796875 1077.515625 148.058594 1080.171875 C 140.515625 1071.910156 125.085938 1060.878906 113.617188 1053.632812 C 110.460938 1052.429688 120.859375 1066.820312 128.148438 1069.660156 Z M 91.277344 1048.921875 C 92.203125 1050.949219 93.34375 1052.90625 94.933594 1053.191406 C 102.433594 1054.652344 111.4375 1060.824219 114.160156 1062.304688 C 114.390625 1062.441406 114.65625 1062.152344 114.503906 1061.917969 C 107.875 1051.410156 108.949219 1049.640625 101.382812 1046.59375 C 97.5625 1044.992188 94.816406 1044.167969 92.988281 1044.328125 C 88.742188 1044.695312 90.945312 1048.183594 91.277344 1048.921875 Z M 88.898438 1052.996094 C 90.652344 1052.648438 90.851562 1052.253906 90.03125 1050.6875 C 87.847656 1046.5625 83.792969 1044.558594 81.15625 1046.460938 C 78.519531 1048.363281 77.890625 1050.34375 78.167969 1051.882812 C 78.539062 1054.34375 82.269531 1054.214844 88.898438 1052.996094 Z M 85.753906 1068.859375 C 87.773438 1069.292969 90.960938 1068.730469 92.980469 1067.945312 C 93.585938 1067.699219 93.695312 1066.910156 93.21875 1066.429688 L 83.316406 1057.835938 C 82.164062 1056.863281 80.582031 1056.550781 79.214844 1057.128906 C 77.632812 1058.152344 77.695312 1060.835938 79.015625 1063.179688 C 79.496094 1064.179688 83.652344 1068.410156 85.753906 1068.859375 Z M 125.574219 1081.121094 C 116.507812 1077.113281 109.539062 1073.589844 98.949219 1069.664062 C 97.796875 1069.242188 96.554688 1069.089844 95.328125 1069.289062 C 91.59375 1069.824219 86.441406 1071.039062 86.742188 1071.394531 C 89.523438 1074.488281 111.03125 1085.515625 125.574219 1081.121094 Z M 94.480469 1084.023438 C 102.105469 1087.863281 116.582031 1095.90625 122.867188 1093.046875 C 123.585938 1091.863281 114.734375 1087.671875 111.261719 1085.101562 C 109.996094 1084.132812 108.558594 1083.417969 107.011719 1082.941406 C 103.785156 1081.929688 101.132812 1080.664062 97.671875 1080.472656 C 96.75 1080.449219 95.746094 1080.550781 94.699219 1080.847656 C 93.242188 1081.289062 93.042969 1083.308594 94.480469 1084.023438 Z M 101.914062 1097.777344 C 103.378906 1097.828125 111.957031 1095.753906 111.796875 1094.617188 C 111.636719 1093.480469 99.367188 1088.613281 93.59375 1085.863281 C 92.148438 1085.175781 90.558594 1086.375 90.816406 1087.878906 C 91.382812 1091.164062 93.375 1093.621094 95.871094 1095.609375 C 97.652344 1097.007812 99.785156 1097.726562 101.914062 1097.777344 Z M 129.3125 1094.574219 L 115.371094 1095.617188 C 114.8125 1095.667969 114.292969 1095.789062 113.730469 1095.988281 L 104.632812 1099.808594 C 103.96875 1100.074219 108.238281 1102.558594 114.648438 1101.554688 C 119.996094 1100.640625 125.324219 1097.375 129.3125 1094.574219 Z M 143.960938 1095.484375 C 143.695312 1094.964844 143.550781 1094.4375 143.433594 1093.890625 C 142.46875 1093.683594 140.726562 1093.570312 137.71875 1093.824219 C 135.335938 1094.011719 133.039062 1094.734375 130.964844 1095.914062 L 120.832031 1101.71875 C 125.125 1102.351562 140.683594 1097.945312 143.960938 1095.484375 Z M 147.820312 1086.941406 C 147.734375 1086.660156 147.683594 1086.359375 147.601562 1086.082031 C 146.894531 1086.539062 146.3125 1087.226562 145.839844 1087.9375 C 146.425781 1087.511719 147.085938 1087.128906 147.820312 1086.941406 Z M 145.222656 1097.292969 C 145.085938 1097.117188 144.910156 1096.992188 144.828125 1096.832031 C 144.789062 1097.285156 144.71875 1097.621094 144.660156 1097.898438 C 144.824219 1097.671875 145.007812 1097.480469 145.222656 1097.292969 Z M 177.296875 1164.789062 C 177 1164.957031 176.636719 1165.023438 176.191406 1164.8125 C 174.722656 1164.238281 174.660156 1162.105469 174.660156 1162.105469 C 174.660156 1162.105469 173.824219 1163.433594 171.824219 1162.773438 C 169.8125 1162.167969 170.03125 1160.472656 170.03125 1160.472656 C 170.03125 1160.472656 169.015625 1161.851562 167.257812 1161.53125 C 165.449219 1161.203125 165.316406 1159.925781 165.164062 1159.167969 C 163.632812 1160.898438 161.109375 1160.125 160.484375 1157.902344 C 159.261719 1159.292969 156.550781 1158.710938 155.714844 1157.34375 C 154.363281 1158.242188 151.683594 1157.667969 151.136719 1155.894531 C 149.648438 1157.695312 147.03125 1157.363281 146.351562 1155.128906 C 145.898438 1155.757812 145.253906 1156.867188 143.46875 1156.425781 C 141.683594 1155.984375 141.375 1154.324219 141.375 1154.324219 C 141.375 1154.324219 140.878906 1155.957031 138.796875 1155.683594 C 136.714844 1155.410156 136.484375 1153.910156 136.484375 1153.910156 C 136.484375 1153.910156 135.582031 1155.835938 133.976562 1155.753906 C 133.488281 1155.734375 133.160156 1155.519531 132.980469 1155.277344 C 134.511719 1160.277344 138.269531 1165.957031 142.28125 1168.96875 C 143.65625 1169.988281 145.65625 1169.691406 146.550781 1168.230469 C 146.636719 1168.101562 146.679688 1168.023438 146.710938 1167.886719 C 147.183594 1168.917969 148.972656 1169.882812 150.4375 1169.933594 C 151.914062 1169.933594 152.847656 1169.085938 153.308594 1168.433594 C 153.519531 1169.203125 153.988281 1170.378906 155.304688 1170.980469 C 156.652344 1171.585938 158.691406 1171.386719 159.546875 1170.640625 C 159.570312 1170.792969 159.574219 1170.910156 159.550781 1171.019531 C 159.792969 1172.726562 161.46875 1173.8125 163.140625 1173.445312 C 168.0625 1172.351562 173.847656 1168.71875 177.296875 1164.789062 Z M 180.78125 1129.820312 C 180.484375 1130.394531 179.5625 1131.851562 177.875 1131.488281 C 175.152344 1130.960938 174.785156 1127.808594 174.625 1127.484375 C 174.539062 1127.609375 173.605469 1129.410156 171.25 1128.789062 C 169.390625 1128.011719 169.136719 1126.769531 168.925781 1125.1875 C 168.730469 1125.695312 168.414062 1126.089844 167.988281 1126.320312 C 166.691406 1127.230469 164.875 1126.929688 163.753906 1125.816406 C 163.351562 1125.410156 163.003906 1124.871094 162.816406 1124.253906 C 162.386719 1124.769531 161.855469 1125.089844 161.320312 1125.292969 C 159.84375 1125.847656 158.0625 1125.378906 157.253906 1124.015625 C 157.027344 1123.589844 156.835938 1123.140625 156.863281 1122.597656 C 156.074219 1123.992188 155.246094 1125.007812 153.269531 1124.929688 C 150.886719 1124.5625 150.777344 1122.507812 150.722656 1122.351562 C 150.457031 1122.527344 148.765625 1125.269531 146.117188 1124.671875 C 144.414062 1124.25 144.195312 1122.578125 144.152344 1121.957031 C 143.753906 1122.335938 141.457031 1124.28125 139.855469 1123.648438 C 137.160156 1126.230469 133.78125 1134.414062 133.761719 1135.046875 C 133.6875 1135.671875 133.859375 1136.34375 134.691406 1136.523438 C 136.40625 1136.890625 137.441406 1135.429688 137.425781 1135.515625 C 137.460938 1136.160156 138.09375 1136.703125 139.109375 1136.832031 C 140.964844 1137.085938 142.207031 1135.613281 142.207031 1135.613281 C 142.203125 1136.308594 142.625 1137.035156 144.097656 1137.179688 C 145.464844 1137.414062 146.679688 1136.484375 146.734375 1135.828125 C 147.050781 1136.914062 147.964844 1137.371094 149.144531 1137.390625 C 150.316406 1137.46875 150.953125 1137.054688 151.816406 1136.28125 C 151.816406 1136.28125 151.964844 1137.734375 153.644531 1138.007812 C 155.320312 1138.28125 156.765625 1137.34375 156.9375 1136.683594 C 156.9375 1136.683594 157.183594 1138.769531 159.566406 1139.398438 C 162.003906 1139.773438 163.078125 1138.003906 163.078125 1138.003906 C 163.03125 1138.632812 163.902344 1140.09375 165.539062 1140.5625 C 167.179688 1141 167.914062 1139.738281 167.914062 1139.738281 C 168.328125 1140.785156 168.800781 1141.40625 169.894531 1141.84375 C 170.992188 1142.253906 172.007812 1142.242188 172.734375 1141.410156 C 172.511719 1142.058594 173.234375 1143.402344 174.582031 1143.722656 C 175.984375 1144.195312 176.703125 1143.683594 176.953125 1143.070312 C 176.953125 1143.070312 177.480469 1144.925781 179.277344 1145.453125 C 180.253906 1145.75 181.082031 1145.523438 181.351562 1144.941406 C 181.371094 1144.859375 182.066406 1146.75 183.433594 1146.984375 C 184.855469 1147.230469 185.0625 1144.78125 185.09375 1144.644531 C 185.296875 1135.199219 184.234375 1133.140625 184.011719 1133.09375 C 182.257812 1133.039062 180.933594 1130.316406 180.78125 1129.820312 Z M 187.96875 1095.644531 C 188.652344 1095.296875 189.714844 1094.394531 190.074219 1092.847656 C 190.21875 1092.179688 190.195312 1091.480469 189.953125 1090.847656 C 189.386719 1089.304688 188.039062 1088.578125 186.925781 1088.371094 C 186.234375 1088.222656 185.625 1088.234375 185.285156 1088.335938 C 185.5 1087.746094 186.332031 1084.671875 183.25 1082.039062 C 182.707031 1081.601562 182.15625 1081.339844 181.628906 1081.226562 C 180.273438 1080.9375 179.058594 1081.488281 178.664062 1081.839844 C 178.695312 1081.292969 178.675781 1079.492188 176.511719 1078.386719 C 176.167969 1078.226562 175.875 1078.105469 175.558594 1078.097656 C 173.804688 1077.777344 172.457031 1079.34375 172.109375 1079.878906 C 172.101562 1079.238281 171.851562 1077.300781 169.515625 1076.855469 C 169.296875 1076.808594 169.128906 1076.773438 168.839844 1076.769531 C 166.136719 1076.566406 165.566406 1078.824219 165.4375 1079.695312 C 165.261719 1079.019531 164.6875 1077.648438 163.027344 1077.292969 C 162.558594 1077.191406 161.90625 1077.136719 161.207031 1077.28125 C 157.773438 1077.90625 157.15625 1081.863281 157.109375 1082.492188 C 156.851562 1082.207031 156.0625 1081.570312 155 1081.402344 C 154.167969 1081.222656 153.125 1081.375 151.929688 1082.222656 C 149.441406 1084.648438 151.4375 1088.296875 151.4375 1088.296875 C 151.4375 1088.296875 147.230469 1088.875 146.464844 1092.308594 C 146.140625 1093.832031 147.417969 1096.632812 150.347656 1097.40625 C 150.347656 1097.40625 146.558594 1097.144531 146.324219 1100.664062 C 146.0625 1104.175781 149.96875 1105.246094 149.96875 1105.246094 C 149.96875 1105.246094 145.613281 1107.066406 147.953125 1110.324219 C 149.289062 1112.179688 150.957031 1111.839844 152.171875 1111.289062 C 152.226562 1111.300781 152.257812 1111.308594 152.3125 1111.320312 C 152.992188 1110.972656 153.488281 1110.554688 153.703125 1110.371094 C 153.820312 1110.890625 154.34375 1113.175781 156.5 1114.191406 C 158.652344 1115.207031 160.652344 1114.386719 161.3125 1113.339844 C 161.367188 1113.351562 161.394531 1113.355469 161.449219 1113.367188 C 161.460938 1113.3125 161.523438 1113.296875 161.535156 1113.242188 C 161.523438 1114.109375 161.847656 1116.238281 164.222656 1116.894531 C 166.847656 1117.601562 168.140625 1115.5 168.449219 1114.871094 C 168.503906 1114.882812 168.53125 1114.886719 168.585938 1114.898438 C 168.832031 1115.503906 169.8125 1117.542969 172.480469 1117.652344 C 173.972656 1117.710938 174.960938 1117.023438 175.515625 1116.328125 C 175.570312 1116.339844 175.597656 1116.347656 175.652344 1116.359375 C 176.15625 1115.769531 176.371094 1115.175781 176.421875 1114.925781 C 176.78125 1115.554688 178.445312 1117.914062 180.699219 1117.527344 C 180.753906 1117.539062 180.753906 1117.539062 180.78125 1117.546875 C 181.046875 1117.515625 181.351562 1117.4375 181.648438 1117.269531 C 185.40625 1115.550781 182.777344 1112.289062 182.777344 1112.289062 C 182.777344 1112.289062 186.53125 1112.046875 187.191406 1109.375 C 187.847656 1106.730469 186.074219 1105.421875 186.074219 1105.421875 C 186.074219 1105.421875 189.757812 1105.515625 190.738281 1101.75 C 191.761719 1098.199219 187.96875 1095.644531 187.96875 1095.644531 Z M 190.414062 1106.644531 C 190.214844 1106.746094 190.054688 1106.828125 189.863281 1106.902344 C 189.984375 1107.160156 190.128906 1107.425781 190.191406 1107.667969 C 190.191406 1107.40625 190.328125 1107.03125 190.414062 1106.644531 Z M 193.117188 1098.085938 C 193.035156 1097.253906 192.765625 1096.355469 192.277344 1095.667969 C 192.140625 1095.902344 191.941406 1096.148438 191.722656 1096.363281 C 192.3125 1096.839844 192.789062 1097.460938 193.117188 1098.085938 Z M 210.21875 1120.875 L 203.363281 1111.425781 C 201.976562 1109.53125 200.183594 1107.898438 198.058594 1106.746094 C 195.441406 1105.316406 193.847656 1104.652344 192.875 1104.472656 C 192.539062 1104.953125 192.195312 1105.34375 191.742188 1105.710938 C 193.714844 1109.324219 206.121094 1119.734375 210.21875 1120.875 Z M 225.851562 1125.828125 L 219.125 1118.609375 C 218.75 1118.207031 218.28125 1117.820312 217.78125 1117.59375 L 205.496094 1110.925781 C 207.980469 1115.113281 211.503906 1120.28125 216.066406 1123.289062 C 221.410156 1126.847656 226.316406 1126.363281 225.851562 1125.828125 Z M 241.644531 1117.640625 C 235.238281 1117.832031 222.082031 1117.242188 221.453125 1118.152344 C 220.839844 1119.121094 227.8125 1124.507812 229.164062 1125.085938 C 231.128906 1125.914062 233.421875 1126.144531 235.539062 1125.585938 C 238.691406 1124.78125 241.449219 1123.398438 243.320312 1120.609375 C 244.207031 1119.320312 243.253906 1117.550781 241.644531 1117.640625 Z M 240.140625 1111.019531 C 236.878906 1109.769531 233.941406 1109.835938 230.613281 1109.4375 C 229 1109.265625 227.417969 1109.363281 225.847656 1109.664062 C 221.628906 1110.585938 211.835938 1110.777344 212.003906 1112.148438 C 216.550781 1117.390625 233.03125 1115.964844 241.597656 1115.570312 C 243.171875 1115.5 243.84375 1113.585938 242.652344 1112.546875 C 241.859375 1111.910156 240.957031 1111.398438 240.140625 1111.019531 Z M 246.859375 1101.84375 C 245.808594 1101.210938 244.632812 1100.753906 243.398438 1100.695312 C 232.132812 1099.929688 224.335938 1100.257812 214.421875 1100.21875 C 225.824219 1110.179688 250 1108.898438 253.828125 1107.253906 C 254.269531 1107.089844 250.074219 1103.839844 246.859375 1101.84375 Z M 266.5625 1097.394531 C 265.550781 1096.308594 263.964844 1095.878906 262.53125 1096.355469 L 249.972656 1100.132812 C 249.328125 1100.3125 249.125 1101.109375 249.570312 1101.613281 C 251.050781 1103.207031 253.738281 1104.972656 255.785156 1105.410156 C 257.832031 1105.851562 263.414062 1103.710938 264.304688 1103.0625 C 266.484375 1101.410156 267.582031 1098.976562 266.5625 1097.394531 Z M 269.179688 1086.816406 C 267.558594 1084 263.035156 1084.164062 259.359375 1087 C 257.945312 1088.058594 257.988281 1088.535156 259.445312 1089.570312 C 264.984375 1093.429688 268.339844 1095.050781 269.730469 1093.027344 C 270.5625 1091.695312 270.777344 1089.625 269.179688 1086.816406 Z M 185.195312 1093.597656 C 184.742188 1093.558594 184.339844 1093.820312 184.269531 1094.269531 C 184.015625 1095.871094 182.75 1096.640625 181.628906 1096.605469 C 180.402344 1096.515625 179.652344 1095.570312 179.628906 1094.058594 C 179.640625 1093.597656 179.253906 1093.25 178.785156 1093.265625 C 178.324219 1093.253906 177.980469 1093.644531 177.996094 1094.113281 C 178.011719 1094.84375 176.625 1095.792969 175.019531 1095.851562 C 173.859375 1095.867188 171.9375 1095.511719 171.828125 1092.644531 C 171.785156 1092.171875 171.398438 1091.828125 170.988281 1091.855469 C 170.515625 1091.898438 170.171875 1092.289062 170.195312 1092.699219 C 170.210938 1093.3125 169.984375 1093.699219 169.507812 1094.03125 C 168.414062 1094.667969 166.441406 1094.417969 165.179688 1093.566406 C 164.496094 1093.101562 163.769531 1092.308594 163.921875 1091.0625 C 163.960938 1090.609375 163.644531 1090.191406 163.199219 1090.125 C 162.742188 1090.085938 162.328125 1090.402344 162.261719 1090.851562 C 162.21875 1091.308594 161.960938 1091.570312 161.519531 1091.738281 C 160.480469 1092.125 158.847656 1091.65625 157.804688 1090.707031 C 157.273438 1090.21875 156.664062 1089.417969 156.992188 1088.300781 C 157.085938 1087.855469 156.867188 1087.402344 156.394531 1087.300781 C 155.964844 1087.152344 155.5 1087.429688 155.398438 1087.898438 C 155.023438 1089.386719 155.460938 1090.84375 156.726562 1091.957031 C 158.234375 1093.296875 160.511719 1093.871094 162.113281 1093.285156 C 162.269531 1093.234375 162.398438 1093.175781 162.566406 1093.066406 C 162.90625 1093.777344 163.457031 1094.445312 164.222656 1094.929688 C 164.902344 1095.394531 165.703125 1095.710938 166.53125 1095.890625 C 167.886719 1096.179688 169.269531 1096.070312 170.261719 1095.5 C 170.457031 1095.398438 170.632812 1095.261719 170.800781 1095.152344 C 171.511719 1096.550781 172.816406 1097.613281 175.089844 1097.550781 C 176.34375 1097.5 177.652344 1097.058594 178.5625 1096.324219 C 179.210938 1097.625 180.441406 1098.234375 181.609375 1098.3125 C 183.40625 1098.4375 185.621094 1097.144531 186.019531 1094.617188 C 185.949219 1094.136719 185.640625 1093.695312 185.195312 1093.597656 Z M 181.992188 1105.96875 C 181.539062 1105.929688 181.132812 1106.191406 181.066406 1106.640625 C 180.808594 1108.238281 179.542969 1109.011719 178.425781 1108.972656 C 177.199219 1108.886719 176.445312 1107.941406 176.425781 1106.425781 C 176.4375 1105.964844 176.046875 1105.621094 175.582031 1105.636719 C 175.121094 1105.625 174.777344 1106.015625 174.792969 1106.480469 C 174.808594 1107.210938 173.417969 1108.160156 171.8125 1108.222656 C 170.652344 1108.234375 168.734375 1107.878906 168.625 1105.015625 C 168.582031 1104.539062 168.191406 1104.195312 167.78125 1104.222656 C 167.308594 1104.265625 166.964844 1104.65625 166.992188 1105.070312 C 167.007812 1105.683594 166.777344 1106.066406 166.300781 1106.402344 C 165.210938 1107.039062 163.238281 1106.789062 161.972656 1105.9375 C 161.292969 1105.472656 160.566406 1104.675781 160.71875 1103.433594 C 160.757812 1102.976562 160.441406 1102.5625 159.992188 1102.492188 C 159.539062 1102.453125 159.125 1102.769531 159.054688 1103.222656 C 159.015625 1103.675781 158.757812 1103.941406 158.316406 1104.105469 C 157.277344 1104.492188 155.640625 1104.027344 154.601562 1103.078125 C 154.070312 1102.585938 153.460938 1101.789062 153.785156 1100.667969 C 153.882812 1100.226562 153.660156 1099.769531 153.191406 1099.671875 C 152.75 1099.574219 152.296875 1099.796875 152.195312 1100.269531 C 151.816406 1101.753906 152.257812 1103.210938 153.523438 1104.324219 C 155.03125 1105.664062 157.308594 1106.242188 158.910156 1105.65625 C 159.066406 1105.601562 159.195312 1105.542969 159.363281 1105.433594 C 159.703125 1106.144531 160.253906 1106.816406 161.015625 1107.296875 C 161.699219 1107.761719 162.496094 1108.078125 163.328125 1108.257812 C 164.683594 1108.550781 166.066406 1108.441406 167.058594 1107.867188 C 167.253906 1107.765625 167.425781 1107.628906 167.59375 1107.519531 C 168.308594 1108.921875 169.613281 1109.984375 171.882812 1109.921875 C 173.140625 1109.871094 174.449219 1109.425781 175.359375 1108.691406 C 176.007812 1109.992188 177.234375 1110.605469 178.40625 1110.679688 C 180.203125 1110.804688 182.417969 1109.511719 182.816406 1106.984375 C 182.746094 1106.507812 182.433594 1106.0625 181.992188 1105.96875 Z M 181.992188 1105.96875 " fill-opacity="1" fill-rule="nonzero"/></g></g></g></svg>