<svg xmlns="http://www.w3.org/2000/svg" xmlns:xlink="http://www.w3.org/1999/xlink" width="1080" zoomAndPan="magnify" viewBox="0 0 810 1439.999935" height="1920" preserveAspectRatio="xMidYMid meet" version="1.0"><defs><clipPath id="d58d07660a"><path d="M 35 45 L 248 45 L 248 202 L 35 202 Z M 35 45 " clip-rule="nonzero"/></clipPath><clipPath id="a35cb59ae1"><path d="M 32.691406 24.152344 L 265.878906 74.199219 L 233.144531 226.726562 L -0.046875 176.679688 Z M 32.691406 24.152344 " clip-rule="nonzero"/></clipPath><clipPath id="86f4ebc496"><path d="M 32.691406 24.152344 L 265.878906 74.199219 L 233.144531 226.726562 L -0.046875 176.679688 Z M 32.691406 24.152344 " clip-rule="nonzero"/></clipPath><clipPath id="45228f0283"><path d="M 75 1032 L 273 1032 L 273 1178 L 75 1178 Z M 75 1032 " clip-rule="nonzero"/></clipPath><clipPath id="0a0f6ede23"><path d="M 73.09375 1012.5625 L 289.417969 1058.992188 L 259.042969 1200.519531 L 42.71875 1154.089844 Z M 73.09375 1012.5625 " clip-rule="nonzero"/></clipPath><clipPath id="c00a4378fb"><path d="M 73.09375 1012.5625 L 289.417969 1058.992188 L 259.042969 1200.519531 L 42.71875 1154.089844 Z M 73.09375 1012.5625 " clip-rule="nonzero"/></clipPath></defs><g clip-path="url(#d58d07660a)"><g clip-path="url(#a35cb59ae1)"><g clip-path="url(#86f4ebc496)"><path fill="#fad02c" d="M 215.6875 129.429688 C 219.925781 131.339844 219.957031 135.566406 219.4375 138.425781 C 217.796875 147.363281 204.34375 153.230469 185.621094 145.992188 C 177.523438 142.878906 169.082031 137.59375 159.265625 126.796875 C 159.136719 126.957031 159.058594 127.03125 159.015625 127.085938 C 159.148438 127.769531 159.152344 128.492188 158.964844 129.203125 C 158.894531 129.53125 158.773438 129.816406 158.613281 130.125 C 164.574219 131.5625 177.332031 144.210938 179.808594 148.652344 C 180.34375 149.644531 180.507812 150.492188 180.527344 151.121094 C 180.675781 151.152344 180.796875 151.179688 180.945312 151.210938 C 184.851562 152.332031 193.652344 175.421875 193.433594 177.3125 C 193.1875 179.199219 185.972656 173.992188 183.957031 169.585938 C 181.402344 164.191406 178.355469 156.441406 178.667969 152.941406 C 175.988281 151.929688 167.46875 146.128906 161.855469 142.921875 C 159.273438 141.429688 156.765625 136.109375 156.457031 132.757812 C 155.875 133.136719 155.265625 133.503906 154.625 133.742188 C 154.996094 135.199219 154.683594 136.664062 153.710938 137.988281 C 153.152344 138.710938 152.484375 139.347656 151.722656 139.84375 C 151.921875 140.074219 152.140625 140.371094 152.328125 140.660156 C 152.375 140.734375 152.445312 140.839844 152.46875 140.878906 C 152.710938 139.742188 153.269531 139.171875 154.179688 139.304688 C 159.527344 140.390625 168.125 153.964844 169.835938 159.082031 C 170.128906 160.179688 170.195312 161.035156 170.054688 161.695312 C 170.203125 161.726562 170.382812 161.765625 170.5625 161.804688 C 174.265625 163.441406 170.503906 193.3125 169.421875 194.863281 C 168.34375 196.410156 163.511719 185.929688 163.832031 180.652344 C 164.164062 175.1875 165.542969 166.730469 167.765625 163.203125 C 165.132812 162.390625 159.050781 157.144531 158.003906 155.917969 C 157.453125 155.300781 156.949219 154.597656 156.460938 153.960938 C 157.183594 160.183594 156.859375 166.335938 156.4375 169.183594 C 155.460938 176.199219 153.140625 182.515625 150.816406 185.769531 C 150.714844 185.8125 144.359375 195.953125 132.179688 199.0625 C 132.179688 199.0625 125.476562 201.535156 117.097656 201.765625 C 109.550781 198.117188 104.449219 193.113281 104.449219 193.113281 C 94.648438 185.285156 93.015625 173.429688 92.910156 173.34375 C 92.128906 169.421875 92.570312 162.699219 94.589844 155.910156 C 95.367188 153.167969 97.65625 147.4375 100.816406 142.019531 C 100.070312 142.453125 99.363281 142.832031 98.605469 143.167969 C 97.117188 143.851562 89.449219 146.144531 86.714844 145.808594 C 87.296875 149.9375 85.050781 158.210938 83.140625 163.335938 C 81.296875 168.285156 72.566406 175.824219 72.210938 173.996094 C 71.863281 172.140625 80.71875 143.363281 84.738281 143.382812 C 84.929688 143.363281 85.082031 143.394531 85.246094 143.492188 C 85.386719 142.835938 85.785156 142.140625 86.519531 141.203125 C 90.175781 137.234375 103.609375 128.421875 108.910156 129.589844 C 109.804688 129.78125 110.039062 130.582031 109.824219 131.726562 C 109.898438 131.679688 110.007812 131.609375 110.042969 131.585938 C 110.332031 131.398438 110.609375 131.269531 110.929688 131.085938 C 110.445312 130.296875 110.03125 129.457031 109.878906 128.578125 C 109.535156 126.972656 109.851562 125.507812 110.789062 124.332031 C 110.246094 123.8125 109.835938 123.253906 109.519531 122.683594 C 107.808594 125.570312 103.324219 129.453125 100.425781 129.738281 C 93.984375 130.390625 83.84375 132.152344 80.980469 131.976562 C 79.832031 135.292969 73.84375 141.109375 69.328125 144.984375 C 65.695312 148.113281 56.945312 149.925781 57.515625 148.140625 C 58.0625 146.320312 75.585938 128.910156 79.617188 129.464844 C 79.765625 129.496094 79.886719 129.519531 80.035156 129.554688 C 80.320312 128.957031 80.808594 128.28125 81.703125 127.597656 C 85.8125 124.570312 102.574219 118.285156 108.632812 119.398438 C 108.632812 119.117188 108.679688 118.753906 108.691406 118.410156 C 108.785156 117.679688 109.082031 117.023438 109.515625 116.460938 C 109.46875 116.390625 109.464844 116.261719 109.40625 116.09375 C 96.023438 121.914062 86.214844 123.28125 77.496094 122.785156 C 57.601562 121.734375 47.707031 110.855469 49.910156 102.042969 C 50.609375 99.222656 52.4375 95.363281 57.019531 95.375 C 25.746094 86.445312 28.648438 42.976562 64.199219 58.863281 C 82.015625 66.40625 104.007812 84.855469 117.984375 96.046875 C 118.632812 95.777344 119.359375 95.589844 120.054688 95.550781 C 117.539062 93.761719 114.566406 89.871094 113.941406 86.828125 C 112.570312 80.5625 111.894531 78.042969 112.257812 76.929688 C 109.90625 76.707031 105.214844 75.011719 101.066406 72.402344 C 96.96875 69.835938 93.070312 61.398438 91.625 60.152344 C 93.378906 58.214844 102.285156 65.847656 112.734375 75 C 113.367188 75.542969 113.65625 75.949219 113.746094 76.25 C 114.449219 76.464844 115.324219 77.183594 116.484375 78.464844 C 119.195312 81.671875 123.441406 88.054688 124.070312 92.535156 C 124.898438 91.871094 125.84375 91.386719 126.84375 91.097656 C 125.15625 89.800781 124.464844 87.929688 125.734375 85.078125 C 126.257812 83.9375 126.984375 82.875 127.785156 81.921875 C 130.105469 79.105469 133.042969 77.328125 136.191406 76.46875 C 133.941406 73.421875 135.273438 62.140625 131.097656 58.335938 C 125.253906 53.015625 116.722656 51.339844 114.277344 48.785156 C 113.722656 48.164062 113.398438 47.34375 113.476562 46.546875 C 114.117188 41.683594 129.191406 50.953125 132.285156 55.429688 C 133.589844 57.335938 134.648438 58.660156 134.667969 59.289062 C 135.140625 61.453125 139.980469 72.1875 139.085938 75.902344 C 142.261719 75.648438 145.472656 76.242188 148.3125 77.695312 C 148.535156 77.804688 148.753906 77.949219 148.988281 78.027344 C 149.699219 74.273438 158.523438 66.441406 159.835938 64.691406 C 160.125 64.066406 161.664062 63.300781 163.59375 62.152344 C 168.253906 59.335938 185.765625 57.089844 184.386719 61.765625 C 184.15625 62.5625 183.546875 63.210938 182.742188 63.476562 C 179.402344 64.792969 170.996094 62.832031 163.484375 65.285156 C 158.121094 67.011719 154.726562 77.882812 151.398438 79.734375 C 153.917969 81.808594 155.875 84.601562 156.828125 88.152344 C 157.164062 89.351562 157.324219 90.636719 157.402344 91.875 C 157.386719 94.996094 155.988281 96.417969 153.949219 96.917969 C 154.742188 97.585938 155.40625 98.417969 155.886719 99.367188 C 158.300781 95.535156 164.789062 91.457031 168.574219 89.675781 C 170.179688 89.019531 171.242188 88.714844 171.976562 88.777344 C 172.183594 88.542969 172.679688 88.273438 173.414062 88.054688 C 186.683594 83.929688 197.957031 80.660156 198.757812 83.175781 C 196.957031 83.726562 189.882812 89.808594 185.121094 90.472656 C 180.234375 91.144531 175.300781 90.742188 173.054688 90.011719 C 173.003906 91.125 171.292969 93.132812 167.460938 98.347656 C 165.582031 100.851562 161.328125 103.222656 158.304688 103.792969 C 158.921875 104.113281 159.480469 104.578125 159.992188 105.09375 C 177.328125 100.621094 204.960938 92.792969 224.296875 93.253906 C 227.351562 93.253906 230.046875 93.488281 232.410156 93.960938 C 232.5 93.980469 232.648438 94.015625 232.738281 94.035156 C 260.421875 99.632812 245.253906 133.679688 215.6875 129.429688 Z M 204.417969 104.621094 C 204.1875 104.824219 204.296875 105.191406 204.585938 105.15625 C 207.890625 104.867188 219.46875 102.816406 227.515625 104.703125 C 229.203125 105.125 231.191406 103.707031 232.996094 102.125 C 233.644531 101.578125 237.355469 99.121094 233.347656 96.855469 C 231.621094 95.890625 228.558594 95.480469 224.09375 95.367188 C 215.277344 95.007812 215.550781 97.222656 204.417969 104.621094 Z M 188.90625 108.015625 C 198.148438 112.03125 207.632812 116.976562 217.605469 117.300781 C 218.96875 117.34375 220.382812 117.148438 221.71875 116.746094 L 234.941406 112.832031 C 235.476562 112.664062 235.625 111.976562 235.199219 111.636719 C 221.636719 101.4375 204.320312 108.855469 188.90625 108.015625 Z M 163.328125 107.71875 C 168.691406 106.992188 175.566406 106.496094 181.777344 106.203125 C 183.667969 106.109375 185.59375 106.148438 187.550781 106.191406 C 195.984375 106.566406 212.558594 97.082031 208.929688 96.835938 C 194.445312 98.917969 174.394531 102.960938 163.328125 107.71875 Z M 161.535156 112.867188 C 174.402344 118.753906 189.304688 115.605469 203.59375 116.453125 C 192.058594 110.476562 172.902344 104.675781 162.101562 110.957031 C 162.050781 111.632812 161.851562 112.277344 161.535156 112.867188 Z M 180.511719 119.222656 C 176.65625 118.144531 172.476562 117.84375 168.242188 117.371094 C 167.269531 117.257812 163.308594 117.6875 164.042969 118.785156 C 164.375 119.261719 166.78125 120.558594 170.101562 121.367188 C 176.242188 122.839844 180.875 123.492188 188.71875 124.578125 C 191.21875 124.710938 183.601562 120.074219 180.511719 119.222656 Z M 166.222656 122.722656 C 165.84375 123.171875 175.9375 128.902344 178.648438 129.640625 C 181.359375 130.378906 191.367188 128.085938 191.660156 127.304688 C 191.957031 126.496094 166.605469 122.242188 166.222656 122.722656 Z M 147.636719 88.683594 C 147.902344 90.929688 152.035156 93.910156 153.164062 91.121094 C 152.632812 89.535156 150.222656 88.707031 150.484375 86.605469 C 151.332031 78.59375 146.027344 84.273438 147.636719 88.683594 Z M 129.585938 86.027344 C 129.460938 89.066406 134.492188 88.019531 135.625 86.074219 C 138.964844 82.726562 136.398438 75.359375 133.886719 82.980469 C 133.253906 85.0625 130.707031 84.863281 129.585938 86.027344 Z M 113.316406 100.484375 C 106.046875 90.324219 86.167969 87.75 73.222656 88.472656 C 86.632812 93.570312 98.914062 102.492188 113.050781 102.460938 C 112.976562 101.789062 113.085938 101.125 113.316406 100.484375 Z M 108.320312 106.761719 C 109.46875 106.070312 106.003906 104.042969 105.070312 103.75 C 101.007812 102.472656 97.078125 101.003906 93.121094 100.402344 C 89.984375 99.917969 81.101562 101.042969 83.4375 101.921875 C 91.050781 104.085938 95.53125 105.457031 101.738281 106.628906 C 105.113281 107.324219 107.808594 107.121094 108.320312 106.761719 Z M 79.664062 103.238281 C 79.652344 104.015625 87.820312 110.273438 90.566406 110.707031 C 93.34375 111.144531 104.898438 110.0625 104.738281 109.496094 C 104.550781 108.921875 79.6875 102.398438 79.664062 103.238281 Z M 90.082031 86.804688 C 75.648438 81.238281 62.90625 67.371094 46.453125 71.0625 C 45.894531 71.191406 45.753906 71.851562 46.195312 72.257812 L 56.621094 81.25 C 57.671875 82.164062 58.878906 82.921875 60.140625 83.445312 C 69.328125 87.292969 80.003906 86.675781 90.082031 86.804688 Z M 92.039062 85.691406 C 93.816406 86.417969 95.5625 87.136719 97.296875 88.074219 C 102.855469 90.953125 108.90625 94.160156 113.5 97.023438 C 105.367188 88.117188 88.734375 76.230469 76.375 68.417969 C 72.972656 67.121094 84.179688 82.628906 92.039062 85.691406 Z M 52.289062 63.339844 C 53.289062 65.523438 54.519531 67.632812 56.230469 67.941406 C 64.316406 69.519531 74.023438 76.167969 76.957031 77.765625 C 77.207031 77.914062 77.492188 77.597656 77.328125 77.34375 C 70.179688 66.023438 71.339844 64.113281 63.183594 60.832031 C 59.0625 59.105469 56.105469 58.21875 54.132812 58.390625 C 49.558594 58.78125 51.929688 62.542969 52.289062 63.339844 Z M 49.726562 67.730469 C 51.617188 67.355469 51.832031 66.933594 50.945312 65.242188 C 48.59375 60.796875 44.222656 58.640625 41.382812 60.6875 C 38.539062 62.734375 37.863281 64.871094 38.160156 66.53125 C 38.558594 69.179688 42.582031 69.042969 49.726562 67.730469 Z M 46.335938 84.828125 C 48.515625 85.296875 51.953125 84.6875 54.128906 83.84375 C 54.777344 83.574219 54.898438 82.726562 54.386719 82.207031 L 43.710938 72.945312 C 42.46875 71.894531 40.761719 71.5625 39.289062 72.183594 C 37.585938 73.285156 37.652344 76.179688 39.074219 78.703125 C 39.589844 79.785156 44.070312 84.339844 46.335938 84.828125 Z M 89.261719 98.042969 C 79.488281 93.726562 71.976562 89.925781 60.5625 85.691406 C 59.320312 85.238281 57.980469 85.074219 56.65625 85.292969 C 52.632812 85.867188 47.082031 87.175781 47.40625 87.558594 C 50.402344 90.890625 73.585938 102.777344 89.261719 98.042969 Z M 55.746094 101.167969 C 63.964844 105.308594 79.574219 113.976562 86.347656 110.894531 C 87.121094 109.621094 77.578125 105.105469 73.835938 102.332031 C 72.46875 101.289062 70.917969 100.515625 69.25 100.003906 C 65.773438 98.914062 62.917969 97.546875 59.1875 97.34375 C 58.191406 97.316406 57.109375 97.425781 55.980469 97.75 C 54.410156 98.226562 54.195312 100.398438 55.746094 101.167969 Z M 63.761719 115.992188 C 65.339844 116.050781 74.585938 113.8125 74.410156 112.585938 C 74.238281 111.359375 61.015625 106.113281 54.789062 103.152344 C 53.230469 102.410156 51.519531 103.703125 51.796875 105.324219 C 52.410156 108.863281 54.554688 111.515625 57.246094 113.65625 C 59.167969 115.160156 61.464844 115.9375 63.761719 115.992188 Z M 93.292969 112.542969 L 78.265625 113.664062 C 77.660156 113.722656 77.105469 113.851562 76.496094 114.066406 L 66.691406 118.183594 C 65.976562 118.46875 70.578125 121.144531 77.484375 120.0625 C 83.25 119.078125 88.996094 115.558594 93.292969 112.542969 Z M 109.085938 113.523438 C 108.800781 112.960938 108.640625 112.394531 108.515625 111.808594 C 107.472656 111.582031 105.597656 111.460938 102.355469 111.734375 C 99.785156 111.933594 97.3125 112.714844 95.074219 113.988281 L 84.152344 120.242188 C 88.78125 120.921875 105.550781 116.175781 109.085938 113.523438 Z M 113.246094 104.316406 C 113.152344 104.015625 113.097656 103.691406 113.007812 103.390625 C 112.246094 103.882812 111.617188 104.625 111.109375 105.390625 C 111.738281 104.929688 112.453125 104.519531 113.246094 104.316406 Z M 110.445312 115.472656 C 110.296875 115.285156 110.109375 115.152344 110.019531 114.976562 C 109.976562 115.464844 109.902344 115.824219 109.835938 116.125 C 110.015625 115.878906 110.214844 115.671875 110.445312 115.472656 Z M 145.023438 188.21875 C 144.703125 188.398438 144.3125 188.472656 143.832031 188.242188 C 142.25 187.621094 142.179688 185.324219 142.179688 185.324219 C 142.179688 185.324219 141.28125 186.757812 139.125 186.042969 C 136.957031 185.390625 137.191406 183.566406 137.191406 183.566406 C 137.191406 183.566406 136.09375 185.050781 134.203125 184.707031 C 132.25 184.351562 132.109375 182.976562 131.941406 182.15625 C 130.292969 184.023438 127.570312 183.191406 126.902344 180.792969 C 125.582031 182.292969 122.660156 181.667969 121.757812 180.191406 C 120.300781 181.160156 117.410156 180.539062 116.820312 178.632812 C 115.21875 180.570312 112.394531 180.214844 111.664062 177.804688 C 111.175781 178.484375 110.484375 179.679688 108.558594 179.203125 C 106.632812 178.726562 106.300781 176.9375 106.300781 176.9375 C 106.300781 176.9375 105.765625 178.695312 103.519531 178.402344 C 101.273438 178.109375 101.027344 176.492188 101.027344 176.492188 C 101.027344 176.492188 100.054688 178.566406 98.324219 178.476562 C 97.800781 178.457031 97.445312 178.226562 97.25 177.964844 C 98.902344 183.351562 102.953125 189.476562 107.277344 192.71875 C 108.757812 193.816406 110.917969 193.5 111.878906 191.921875 C 111.96875 191.785156 112.019531 191.703125 112.050781 191.554688 C 112.5625 192.664062 114.492188 193.703125 116.070312 193.761719 C 117.660156 193.757812 118.667969 192.847656 119.164062 192.140625 C 119.390625 192.972656 119.898438 194.238281 121.316406 194.886719 C 122.769531 195.542969 124.96875 195.328125 125.886719 194.523438 C 125.914062 194.6875 125.917969 194.8125 125.894531 194.929688 C 126.15625 196.769531 127.960938 197.9375 129.761719 197.542969 C 135.066406 196.367188 141.304688 192.453125 145.023438 188.21875 Z M 148.773438 150.527344 C 148.453125 151.148438 147.460938 152.71875 145.644531 152.328125 C 142.707031 151.761719 142.316406 148.359375 142.140625 148.011719 C 142.046875 148.148438 141.039062 150.089844 138.5 149.417969 C 136.496094 148.582031 136.222656 147.242188 135.996094 145.535156 C 135.785156 146.085938 135.445312 146.511719 134.984375 146.757812 C 133.589844 147.738281 131.632812 147.414062 130.421875 146.214844 C 129.988281 145.777344 129.613281 145.195312 129.414062 144.527344 C 128.949219 145.085938 128.375 145.433594 127.800781 145.652344 C 126.203125 146.246094 124.285156 145.742188 123.414062 144.273438 C 123.171875 143.816406 122.960938 143.332031 122.996094 142.746094 C 122.140625 144.25 121.253906 145.339844 119.117188 145.257812 C 116.550781 144.863281 116.433594 142.648438 116.375 142.480469 C 116.085938 142.667969 114.265625 145.625 111.410156 144.980469 C 109.574219 144.523438 109.335938 142.722656 109.292969 142.054688 C 108.863281 142.464844 106.386719 144.558594 104.660156 143.875 C 101.753906 146.660156 98.113281 155.480469 98.09375 156.164062 C 98.011719 156.832031 98.199219 157.5625 99.09375 157.753906 C 100.941406 158.148438 102.058594 156.574219 102.039062 156.664062 C 102.078125 157.363281 102.761719 157.945312 103.855469 158.085938 C 105.855469 158.359375 107.195312 156.769531 107.195312 156.769531 C 107.191406 157.519531 107.644531 158.304688 109.234375 158.460938 C 110.707031 158.714844 112.015625 157.710938 112.074219 157.003906 C 112.414062 158.171875 113.402344 158.667969 114.675781 158.6875 C 115.9375 158.773438 116.625 158.324219 117.550781 157.492188 C 117.550781 157.492188 117.714844 159.058594 119.523438 159.355469 C 121.332031 159.648438 122.890625 158.640625 123.074219 157.929688 C 123.074219 157.929688 123.339844 160.175781 125.910156 160.851562 C 128.535156 161.257812 129.695312 159.347656 129.695312 159.347656 C 129.640625 160.027344 130.582031 161.601562 132.347656 162.105469 C 134.117188 162.582031 134.90625 161.21875 134.90625 161.21875 C 135.351562 162.34375 135.863281 163.019531 137.039062 163.488281 C 138.222656 163.929688 139.320312 163.917969 140.105469 163.019531 C 139.859375 163.71875 140.640625 165.167969 142.097656 165.511719 C 143.609375 166.023438 144.382812 165.472656 144.648438 164.808594 C 144.648438 164.808594 145.21875 166.808594 147.152344 167.378906 C 148.207031 167.699219 149.101562 167.453125 149.394531 166.828125 C 149.414062 166.738281 150.160156 168.777344 151.636719 169.03125 C 153.167969 169.296875 153.390625 166.65625 153.425781 166.503906 C 153.644531 156.328125 152.496094 154.109375 152.257812 154.058594 C 150.371094 154 148.941406 151.066406 148.773438 150.527344 Z M 156.523438 113.699219 C 157.257812 113.324219 158.402344 112.351562 158.792969 110.683594 C 158.945312 109.964844 158.921875 109.210938 158.664062 108.527344 C 158.050781 106.867188 156.597656 106.085938 155.398438 105.859375 C 154.652344 105.699219 153.996094 105.714844 153.628906 105.824219 C 153.859375 105.183594 154.757812 101.875 151.433594 99.035156 C 150.851562 98.566406 150.253906 98.28125 149.6875 98.160156 C 148.226562 97.847656 146.914062 98.441406 146.492188 98.820312 C 146.523438 98.230469 146.503906 96.289062 144.167969 95.101562 C 143.800781 94.925781 143.484375 94.796875 143.144531 94.785156 C 141.253906 94.441406 139.800781 96.132812 139.425781 96.707031 C 139.417969 96.019531 139.148438 93.929688 136.632812 93.449219 C 136.394531 93.398438 136.214844 93.359375 135.902344 93.355469 C 132.988281 93.136719 132.371094 95.570312 132.230469 96.507812 C 132.046875 95.78125 131.425781 94.304688 129.636719 93.917969 C 129.128906 93.8125 128.425781 93.753906 127.675781 93.90625 C 123.972656 94.582031 123.308594 98.847656 123.257812 99.523438 C 122.980469 99.214844 122.128906 98.53125 120.984375 98.347656 C 120.089844 98.15625 118.960938 98.320312 117.671875 99.230469 C 114.992188 101.84375 117.140625 105.777344 117.140625 105.777344 C 117.140625 105.777344 112.609375 106.398438 111.785156 110.101562 C 111.433594 111.746094 112.8125 114.761719 115.96875 115.59375 C 115.96875 115.59375 111.882812 115.3125 111.628906 119.105469 C 111.347656 122.890625 115.5625 124.042969 115.5625 124.042969 C 115.5625 124.042969 110.867188 126.007812 113.386719 129.519531 C 114.832031 131.519531 116.625 131.152344 117.9375 130.558594 C 117.996094 130.570312 118.027344 130.578125 118.085938 130.589844 C 118.820312 130.214844 119.355469 129.769531 119.585938 129.566406 C 119.714844 130.125 120.277344 132.59375 122.601562 133.683594 C 124.921875 134.777344 127.078125 133.894531 127.789062 132.765625 C 127.847656 132.777344 127.878906 132.785156 127.9375 132.796875 C 127.949219 132.738281 128.015625 132.722656 128.027344 132.660156 C 128.015625 133.597656 128.363281 135.890625 130.925781 136.597656 C 133.757812 137.363281 135.148438 135.097656 135.480469 134.417969 C 135.542969 134.429688 135.570312 134.4375 135.628906 134.449219 C 135.898438 135.101562 136.953125 137.296875 139.828125 137.414062 C 141.4375 137.476562 142.5 136.738281 143.097656 135.988281 C 143.15625 136.003906 143.1875 136.007812 143.246094 136.023438 C 143.789062 135.386719 144.019531 134.75 144.078125 134.480469 C 144.460938 135.15625 146.257812 137.699219 148.683594 137.28125 C 148.746094 137.296875 148.746094 137.296875 148.773438 137.300781 C 149.0625 137.269531 149.394531 137.183594 149.710938 137.003906 C 153.757812 135.152344 150.925781 131.636719 150.925781 131.636719 C 150.925781 131.636719 154.976562 131.378906 155.6875 128.496094 C 156.390625 125.648438 154.480469 124.234375 154.480469 124.234375 C 154.480469 124.234375 158.449219 124.335938 159.507812 120.28125 C 160.609375 116.453125 156.523438 113.699219 156.523438 113.699219 Z M 159.15625 125.550781 C 158.945312 125.664062 158.769531 125.75 158.566406 125.832031 C 158.695312 126.109375 158.851562 126.394531 158.917969 126.660156 C 158.917969 126.375 159.066406 125.972656 159.15625 125.550781 Z M 162.074219 116.328125 C 161.984375 115.433594 161.691406 114.464844 161.164062 113.726562 C 161.019531 113.976562 160.804688 114.242188 160.566406 114.472656 C 161.207031 114.984375 161.71875 115.65625 162.074219 116.328125 Z M 180.507812 140.890625 L 173.117188 130.707031 C 171.621094 128.664062 169.691406 126.90625 167.398438 125.664062 C 164.582031 124.121094 162.863281 123.410156 161.8125 123.214844 C 161.449219 123.730469 161.078125 124.152344 160.589844 124.546875 C 162.714844 128.441406 176.09375 139.664062 180.507812 140.890625 Z M 197.359375 146.230469 L 190.109375 138.449219 C 189.703125 138.019531 189.199219 137.597656 188.660156 137.355469 L 175.417969 130.167969 C 178.097656 134.683594 181.894531 140.25 186.8125 143.496094 C 192.570312 147.328125 197.859375 146.804688 197.359375 146.230469 Z M 214.382812 137.40625 C 207.476562 137.613281 193.296875 136.976562 192.617188 137.957031 C 191.957031 139.003906 199.476562 144.804688 200.933594 145.433594 C 203.046875 146.324219 205.523438 146.574219 207.804688 145.96875 C 211.203125 145.101562 214.171875 143.613281 216.191406 140.609375 C 217.144531 139.21875 216.121094 137.308594 214.382812 137.40625 Z M 212.761719 130.273438 C 209.246094 128.921875 206.082031 128.996094 202.492188 128.566406 C 200.753906 128.382812 199.046875 128.484375 197.355469 128.808594 C 192.808594 129.804688 182.25 130.007812 182.433594 131.484375 C 187.335938 137.136719 205.101562 135.601562 214.332031 135.175781 C 216.03125 135.101562 216.753906 133.035156 215.46875 131.914062 C 214.617188 131.234375 213.644531 130.679688 212.761719 130.273438 Z M 220.003906 120.382812 C 218.871094 119.699219 217.601562 119.210938 216.273438 119.144531 C 204.128906 118.320312 195.726562 118.671875 185.035156 118.628906 C 197.328125 129.367188 223.390625 127.988281 227.515625 126.214844 C 227.992188 126.035156 223.472656 122.53125 220.003906 120.382812 Z M 241.242188 115.589844 C 240.152344 114.417969 238.445312 113.957031 236.898438 114.46875 L 223.359375 118.539062 C 222.664062 118.730469 222.449219 119.59375 222.925781 120.132812 C 224.523438 121.851562 227.417969 123.753906 229.625 124.230469 C 231.832031 124.703125 237.847656 122.398438 238.808594 121.695312 C 241.15625 119.917969 242.34375 117.296875 241.242188 115.589844 Z M 244.066406 104.1875 C 242.316406 101.15625 237.441406 101.328125 233.480469 104.386719 C 231.957031 105.527344 232 106.039062 233.570312 107.15625 C 239.539062 111.316406 243.160156 113.0625 244.65625 110.882812 C 245.554688 109.449219 245.785156 107.214844 244.066406 104.1875 Z M 153.535156 111.492188 C 153.042969 111.449219 152.609375 111.734375 152.535156 112.21875 C 152.261719 113.941406 150.894531 114.773438 149.6875 114.734375 C 148.367188 114.636719 147.558594 113.621094 147.53125 111.988281 C 147.546875 111.492188 147.125 111.117188 146.625 111.136719 C 146.128906 111.125 145.757812 111.542969 145.773438 112.046875 C 145.792969 112.832031 144.292969 113.855469 142.5625 113.921875 C 141.3125 113.9375 139.242188 113.554688 139.125 110.464844 C 139.078125 109.953125 138.660156 109.582031 138.214844 109.613281 C 137.707031 109.660156 137.335938 110.082031 137.367188 110.523438 C 137.378906 111.183594 137.132812 111.601562 136.621094 111.960938 C 135.445312 112.644531 133.320312 112.378906 131.957031 111.460938 C 131.222656 110.957031 130.4375 110.101562 130.601562 108.761719 C 130.644531 108.269531 130.304688 107.820312 129.820312 107.75 C 129.328125 107.707031 128.882812 108.046875 128.808594 108.53125 C 128.765625 109.023438 128.488281 109.308594 128.011719 109.488281 C 126.894531 109.902344 125.128906 109.398438 124.007812 108.378906 C 123.433594 107.847656 122.777344 106.988281 123.128906 105.78125 C 123.234375 105.304688 122.996094 104.8125 122.488281 104.707031 C 122.023438 104.542969 121.523438 104.84375 121.414062 105.351562 C 121.007812 106.953125 121.480469 108.523438 122.84375 109.722656 C 124.46875 111.164062 126.925781 111.785156 128.652344 111.15625 C 128.820312 111.097656 128.957031 111.035156 129.140625 110.917969 C 129.503906 111.683594 130.097656 112.40625 130.921875 112.925781 C 131.65625 113.429688 132.519531 113.769531 133.414062 113.960938 C 134.875 114.273438 136.367188 114.15625 137.433594 113.542969 C 137.644531 113.429688 137.835938 113.285156 138.015625 113.167969 C 138.78125 114.675781 140.191406 115.820312 142.636719 115.753906 C 143.992188 115.699219 145.402344 115.222656 146.382812 114.429688 C 147.082031 115.832031 148.40625 116.492188 149.667969 116.574219 C 151.605469 116.707031 153.992188 115.3125 154.421875 112.589844 C 154.34375 112.074219 154.011719 111.597656 153.535156 111.492188 Z M 150.082031 124.824219 C 149.589844 124.78125 149.15625 125.0625 149.082031 125.546875 C 148.804688 127.269531 147.441406 128.105469 146.234375 128.0625 C 144.914062 127.96875 144.101562 126.949219 144.078125 125.316406 C 144.09375 124.820312 143.671875 124.449219 143.167969 124.464844 C 142.671875 124.453125 142.300781 124.875 142.320312 125.378906 C 142.335938 126.164062 140.839844 127.1875 139.109375 127.253906 C 137.859375 127.265625 135.789062 126.886719 135.671875 123.796875 C 135.625 123.285156 135.207031 122.914062 134.761719 122.945312 C 134.253906 122.992188 133.882812 123.410156 133.910156 123.855469 C 133.925781 124.515625 133.679688 124.929688 133.167969 125.289062 C 131.992188 125.976562 129.863281 125.707031 128.503906 124.789062 C 127.765625 124.289062 126.984375 123.433594 127.148438 122.089844 C 127.191406 121.601562 126.851562 121.152344 126.367188 121.078125 C 125.875 121.035156 125.429688 121.378906 125.355469 121.863281 C 125.3125 122.355469 125.035156 122.636719 124.558594 122.816406 C 123.441406 123.234375 121.675781 122.730469 120.554688 121.707031 C 119.980469 121.179688 119.324219 120.316406 119.675781 119.113281 C 119.777344 118.632812 119.539062 118.144531 119.035156 118.035156 C 118.558594 117.933594 118.070312 118.171875 117.960938 118.679688 C 117.554688 120.28125 118.027344 121.851562 119.390625 123.054688 C 121.015625 124.496094 123.472656 125.117188 125.199219 124.488281 C 125.367188 124.429688 125.503906 124.363281 125.6875 124.246094 C 126.050781 125.015625 126.644531 125.734375 127.46875 126.257812 C 128.203125 126.757812 129.066406 127.097656 129.960938 127.292969 C 131.421875 127.605469 132.914062 127.488281 133.980469 126.871094 C 134.191406 126.761719 134.378906 126.613281 134.5625 126.496094 C 135.328125 128.007812 136.738281 129.152344 139.183594 129.082031 C 140.539062 129.03125 141.949219 128.550781 142.929688 127.761719 C 143.628906 129.160156 144.953125 129.820312 146.214844 129.902344 C 148.148438 130.039062 150.539062 128.644531 150.96875 125.921875 C 150.890625 125.40625 150.558594 124.925781 150.082031 124.824219 Z M 150.082031 124.824219 " fill-opacity="1" fill-rule="nonzero"/></g></g></g><g clip-path="url(#45228f0283)"><g clip-path="url(#0a0f6ede23)"><g clip-path="url(#c00a4378fb)"><path fill="#fad02c" d="M 242.855469 1110.238281 C 246.789062 1112.011719 246.8125 1115.933594 246.332031 1118.585938 C 244.8125 1126.878906 232.328125 1132.324219 214.960938 1125.605469 C 207.449219 1122.71875 199.617188 1117.816406 190.511719 1107.796875 C 190.394531 1107.945312 190.320312 1108.015625 190.28125 1108.066406 C 190.40625 1108.703125 190.40625 1109.371094 190.234375 1110.027344 C 190.171875 1110.335938 190.054688 1110.601562 189.90625 1110.886719 C 195.4375 1112.21875 207.269531 1123.957031 209.570312 1128.078125 C 210.066406 1128.996094 210.214844 1129.78125 210.234375 1130.367188 C 210.375 1130.398438 210.484375 1130.421875 210.621094 1130.449219 C 214.25 1131.488281 222.410156 1152.914062 222.207031 1154.667969 C 221.976562 1156.417969 215.289062 1151.589844 213.417969 1147.5 C 211.046875 1142.496094 208.222656 1135.300781 208.511719 1132.058594 C 206.023438 1131.117188 198.121094 1125.734375 192.914062 1122.761719 C 190.519531 1121.378906 188.195312 1116.4375 187.90625 1113.332031 C 187.367188 1113.679688 186.804688 1114.023438 186.207031 1114.242188 C 186.554688 1115.59375 186.261719 1116.953125 185.359375 1118.179688 C 184.839844 1118.851562 184.222656 1119.445312 183.515625 1119.902344 C 183.699219 1120.117188 183.902344 1120.390625 184.074219 1120.660156 C 184.121094 1120.730469 184.183594 1120.828125 184.207031 1120.863281 C 184.433594 1119.808594 184.949219 1119.28125 185.792969 1119.40625 C 190.757812 1120.414062 198.730469 1133.003906 200.316406 1137.753906 C 200.589844 1138.769531 200.648438 1139.566406 200.519531 1140.179688 C 200.65625 1140.207031 200.824219 1140.242188 200.988281 1140.277344 C 204.425781 1141.800781 200.9375 1169.515625 199.933594 1170.953125 C 198.929688 1172.390625 194.449219 1162.667969 194.746094 1157.769531 C 195.054688 1152.699219 196.332031 1144.851562 198.394531 1141.578125 C 195.953125 1140.824219 190.3125 1135.957031 189.34375 1134.820312 C 188.828125 1134.246094 188.359375 1133.59375 187.910156 1133.003906 C 188.578125 1138.777344 188.28125 1144.484375 187.886719 1147.128906 C 186.980469 1153.636719 184.828125 1159.5 182.671875 1162.519531 C 182.578125 1162.558594 176.679688 1171.96875 165.382812 1174.855469 C 165.382812 1174.855469 159.164062 1177.144531 151.390625 1177.363281 C 144.390625 1173.976562 139.65625 1169.332031 139.65625 1169.332031 C 130.566406 1162.070312 129.050781 1151.070312 128.953125 1150.988281 C 128.226562 1147.351562 128.640625 1141.117188 130.515625 1134.816406 C 131.234375 1132.269531 133.359375 1126.953125 136.289062 1121.925781 C 135.597656 1122.328125 134.941406 1122.679688 134.238281 1122.992188 C 132.859375 1123.625 125.746094 1125.753906 123.207031 1125.441406 C 123.746094 1129.269531 121.664062 1136.949219 119.890625 1141.703125 C 118.183594 1146.296875 110.082031 1153.292969 109.753906 1151.597656 C 109.425781 1149.875 117.648438 1123.175781 121.375 1123.191406 C 121.554688 1123.171875 121.691406 1123.203125 121.847656 1123.292969 C 121.976562 1122.683594 122.347656 1122.035156 123.027344 1121.167969 C 126.421875 1117.484375 138.882812 1109.308594 143.800781 1110.390625 C 144.628906 1110.570312 144.847656 1111.3125 144.648438 1112.375 C 144.714844 1112.328125 144.816406 1112.265625 144.851562 1112.242188 C 145.117188 1112.066406 145.375 1111.949219 145.671875 1111.78125 C 145.222656 1111.046875 144.839844 1110.265625 144.695312 1109.453125 C 144.378906 1107.964844 144.671875 1106.605469 145.542969 1105.515625 C 145.039062 1105.027344 144.65625 1104.511719 144.363281 1103.984375 C 142.777344 1106.660156 138.617188 1110.265625 135.929688 1110.53125 C 129.953125 1111.132812 120.546875 1112.769531 117.890625 1112.605469 C 116.824219 1115.6875 111.265625 1121.082031 107.078125 1124.679688 C 103.707031 1127.582031 95.59375 1129.265625 96.121094 1127.609375 C 96.628906 1125.917969 112.886719 1109.761719 116.625 1110.277344 C 116.761719 1110.304688 116.875 1110.328125 117.011719 1110.359375 C 117.273438 1109.804688 117.726562 1109.179688 118.558594 1108.542969 C 122.375 1105.734375 137.921875 1099.902344 143.542969 1100.9375 C 143.542969 1100.675781 143.585938 1100.335938 143.597656 1100.019531 C 143.683594 1099.339844 143.957031 1098.734375 144.359375 1098.210938 C 144.316406 1098.144531 144.3125 1098.027344 144.261719 1097.871094 C 131.84375 1103.269531 122.746094 1104.539062 114.65625 1104.078125 C 96.199219 1103.105469 87.023438 1093.011719 89.066406 1084.835938 C 89.714844 1082.214844 91.410156 1078.632812 95.660156 1078.648438 C 66.652344 1070.359375 69.347656 1030.027344 102.324219 1044.765625 C 118.851562 1051.765625 139.253906 1068.882812 152.21875 1079.265625 C 152.820312 1079.019531 153.492188 1078.84375 154.136719 1078.808594 C 151.804688 1077.148438 149.046875 1073.539062 148.46875 1070.714844 C 147.199219 1064.898438 146.570312 1062.5625 146.910156 1061.53125 C 144.726562 1061.324219 140.375 1059.75 136.523438 1057.328125 C 132.722656 1054.945312 129.109375 1047.121094 127.765625 1045.960938 C 129.394531 1044.164062 137.65625 1051.246094 147.351562 1059.738281 C 147.9375 1060.242188 148.203125 1060.617188 148.289062 1060.898438 C 148.941406 1061.097656 149.75 1061.761719 150.828125 1062.953125 C 153.34375 1065.929688 157.28125 1071.851562 157.863281 1076.011719 C 158.632812 1075.390625 159.511719 1074.941406 160.4375 1074.675781 C 158.871094 1073.46875 158.230469 1071.738281 159.40625 1069.085938 C 159.894531 1068.03125 160.570312 1067.042969 161.308594 1066.160156 C 163.460938 1063.546875 166.1875 1061.898438 169.109375 1061.101562 C 167.023438 1058.273438 168.257812 1047.804688 164.386719 1044.273438 C 158.964844 1039.339844 151.050781 1037.785156 148.78125 1035.414062 C 148.269531 1034.839844 147.96875 1034.078125 148.039062 1033.339844 C 148.632812 1028.824219 162.613281 1037.425781 165.484375 1041.578125 C 166.695312 1043.347656 167.679688 1044.574219 167.699219 1045.160156 C 168.132812 1047.167969 172.625 1057.125 171.796875 1060.574219 C 174.742188 1060.335938 177.71875 1060.890625 180.351562 1062.238281 C 180.5625 1062.339844 180.765625 1062.472656 180.980469 1062.546875 C 181.640625 1059.0625 189.828125 1051.796875 191.042969 1050.171875 C 191.3125 1049.589844 192.738281 1048.878906 194.53125 1047.8125 C 198.855469 1045.203125 215.101562 1043.117188 213.820312 1047.457031 C 213.605469 1048.195312 213.042969 1048.796875 212.292969 1049.042969 C 209.195312 1050.265625 201.398438 1048.445312 194.429688 1050.722656 C 189.453125 1052.324219 186.304688 1062.414062 183.214844 1064.128906 C 185.550781 1066.050781 187.367188 1068.648438 188.253906 1071.941406 C 188.5625 1073.054688 188.714844 1074.246094 188.785156 1075.394531 C 188.769531 1078.292969 187.476562 1079.609375 185.582031 1080.074219 C 186.316406 1080.695312 186.933594 1081.464844 187.378906 1082.34375 C 189.617188 1078.792969 195.640625 1075.007812 199.148438 1073.351562 C 200.640625 1072.742188 201.625 1072.460938 202.308594 1072.519531 C 202.5 1072.300781 202.957031 1072.050781 203.636719 1071.847656 C 215.949219 1068.019531 226.410156 1064.984375 227.152344 1067.320312 C 225.480469 1067.832031 218.914062 1073.472656 214.5 1074.09375 C 209.96875 1074.714844 205.390625 1074.34375 203.308594 1073.664062 C 203.257812 1074.699219 201.671875 1076.5625 198.117188 1081.398438 C 196.375 1083.722656 192.429688 1085.925781 189.625 1086.453125 C 190.195312 1086.75 190.710938 1087.179688 191.1875 1087.660156 C 207.269531 1083.507812 232.90625 1076.246094 250.84375 1076.671875 C 253.679688 1076.667969 256.179688 1076.886719 258.367188 1077.328125 C 258.453125 1077.347656 258.589844 1077.375 258.671875 1077.394531 C 284.355469 1082.585938 270.28125 1114.179688 242.855469 1110.238281 Z M 232.402344 1087.21875 C 232.1875 1087.40625 232.289062 1087.746094 232.554688 1087.71875 C 235.621094 1087.449219 246.363281 1085.546875 253.828125 1087.292969 C 255.394531 1087.6875 257.238281 1086.371094 258.914062 1084.902344 C 259.515625 1084.394531 262.957031 1082.113281 259.242188 1080.011719 C 257.636719 1079.117188 254.796875 1078.738281 250.652344 1078.632812 C 242.476562 1078.300781 242.730469 1080.355469 232.402344 1087.21875 Z M 218.007812 1090.371094 C 226.585938 1094.097656 235.382812 1098.683594 244.632812 1098.984375 C 245.898438 1099.023438 247.210938 1098.84375 248.449219 1098.46875 L 260.71875 1094.835938 C 261.214844 1094.679688 261.351562 1094.042969 260.957031 1093.726562 C 248.371094 1084.265625 232.3125 1091.148438 218.007812 1090.371094 Z M 194.28125 1090.09375 C 199.257812 1089.421875 205.636719 1088.960938 211.398438 1088.6875 C 213.152344 1088.601562 214.9375 1088.636719 216.753906 1088.679688 C 224.578125 1089.023438 239.953125 1080.222656 236.585938 1079.996094 C 223.148438 1081.925781 204.546875 1085.679688 194.28125 1090.09375 Z M 192.621094 1094.871094 C 204.554688 1100.335938 218.378906 1097.414062 231.636719 1098.199219 C 220.933594 1092.652344 203.164062 1087.269531 193.144531 1093.097656 C 193.097656 1093.726562 192.910156 1094.324219 192.621094 1094.871094 Z M 210.222656 1100.769531 C 206.644531 1099.769531 202.769531 1099.488281 198.84375 1099.050781 C 197.9375 1098.945312 194.265625 1099.347656 194.945312 1100.363281 C 195.253906 1100.804688 197.484375 1102.007812 200.5625 1102.757812 C 206.261719 1104.125 210.558594 1104.730469 217.835938 1105.738281 C 220.152344 1105.859375 213.089844 1101.558594 210.222656 1100.769531 Z M 196.964844 1104.015625 C 196.617188 1104.433594 205.980469 1109.753906 208.492188 1110.4375 C 211.007812 1111.121094 220.292969 1108.992188 220.5625 1108.269531 C 220.839844 1107.515625 197.320312 1103.570312 196.964844 1104.015625 Z M 179.726562 1072.433594 C 179.972656 1074.515625 183.808594 1077.285156 184.855469 1074.695312 C 184.359375 1073.222656 182.125 1072.453125 182.367188 1070.503906 C 183.152344 1063.070312 178.234375 1068.339844 179.726562 1072.433594 Z M 162.980469 1069.96875 C 162.867188 1072.789062 167.53125 1071.816406 168.585938 1070.011719 C 171.683594 1066.90625 169.300781 1060.070312 166.972656 1067.140625 C 166.382812 1069.074219 164.023438 1068.886719 162.980469 1069.96875 Z M 147.890625 1083.386719 C 141.144531 1073.960938 122.703125 1071.570312 110.695312 1072.242188 C 123.136719 1076.972656 134.527344 1085.246094 147.640625 1085.21875 C 147.570312 1084.59375 147.675781 1083.980469 147.890625 1083.386719 Z M 143.253906 1089.210938 C 144.316406 1088.566406 141.105469 1086.6875 140.234375 1086.414062 C 136.46875 1085.230469 132.824219 1083.867188 129.152344 1083.3125 C 126.242188 1082.859375 118 1083.90625 120.171875 1084.71875 C 127.234375 1086.730469 131.390625 1088 137.144531 1089.089844 C 140.277344 1089.730469 142.777344 1089.542969 143.253906 1089.210938 Z M 116.667969 1085.941406 C 116.65625 1086.664062 124.238281 1092.46875 126.785156 1092.871094 C 129.359375 1093.277344 140.078125 1092.273438 139.929688 1091.746094 C 139.753906 1091.214844 116.691406 1085.164062 116.667969 1085.941406 Z M 126.335938 1070.695312 C 112.945312 1065.527344 101.125 1052.660156 85.863281 1056.089844 C 85.34375 1056.210938 85.210938 1056.820312 85.625 1057.199219 L 95.292969 1065.539062 C 96.265625 1066.386719 97.390625 1067.09375 98.558594 1067.574219 C 107.082031 1071.144531 116.984375 1070.574219 126.335938 1070.695312 Z M 128.148438 1069.660156 C 129.796875 1070.335938 131.417969 1071 133.027344 1071.871094 C 138.183594 1074.542969 143.796875 1077.515625 148.058594 1080.171875 C 140.515625 1071.910156 125.085938 1060.878906 113.617188 1053.632812 C 110.460938 1052.429688 120.859375 1066.820312 128.148438 1069.660156 Z M 91.277344 1048.921875 C 92.203125 1050.949219 93.34375 1052.90625 94.933594 1053.191406 C 102.433594 1054.652344 111.4375 1060.824219 114.160156 1062.304688 C 114.390625 1062.441406 114.65625 1062.152344 114.503906 1061.917969 C 107.875 1051.410156 108.949219 1049.640625 101.382812 1046.59375 C 97.5625 1044.992188 94.816406 1044.167969 92.988281 1044.328125 C 88.742188 1044.695312 90.945312 1048.183594 91.277344 1048.921875 Z M 88.898438 1052.996094 C 90.652344 1052.648438 90.851562 1052.253906 90.03125 1050.6875 C 87.847656 1046.5625 83.792969 1044.558594 81.15625 1046.460938 C 78.519531 1048.363281 77.890625 1050.34375 78.167969 1051.882812 C 78.539062 1054.34375 82.269531 1054.214844 88.898438 1052.996094 Z M 85.753906 1068.859375 C 87.773438 1069.292969 90.960938 1068.730469 92.980469 1067.945312 C 93.585938 1067.699219 93.695312 1066.910156 93.21875 1066.429688 L 83.316406 1057.835938 C 82.164062 1056.863281 80.582031 1056.550781 79.214844 1057.128906 C 77.632812 1058.152344 77.695312 1060.835938 79.015625 1063.179688 C 79.496094 1064.179688 83.652344 1068.410156 85.753906 1068.859375 Z M 125.574219 1081.121094 C 116.507812 1077.113281 109.539062 1073.589844 98.949219 1069.664062 C 97.796875 1069.242188 96.554688 1069.089844 95.328125 1069.289062 C 91.59375 1069.824219 86.441406 1071.039062 86.742188 1071.394531 C 89.523438 1074.488281 111.03125 1085.515625 125.574219 1081.121094 Z M 94.480469 1084.023438 C 102.105469 1087.863281 116.582031 1095.90625 122.867188 1093.046875 C 123.585938 1091.863281 114.734375 1087.671875 111.261719 1085.101562 C 109.996094 1084.132812 108.558594 1083.417969 107.011719 1082.941406 C 103.785156 1081.929688 101.132812 1080.664062 97.671875 1080.472656 C 96.75 1080.449219 95.746094 1080.550781 94.699219 1080.847656 C 93.242188 1081.289062 93.042969 1083.308594 94.480469 1084.023438 Z M 101.914062 1097.777344 C 103.378906 1097.828125 111.957031 1095.753906 111.796875 1094.617188 C 111.636719 1093.480469 99.367188 1088.613281 93.59375 1085.863281 C 92.148438 1085.175781 90.558594 1086.375 90.816406 1087.878906 C 91.382812 1091.164062 93.375 1093.621094 95.871094 1095.609375 C 97.652344 1097.007812 99.785156 1097.726562 101.914062 1097.777344 Z M 129.3125 1094.574219 L 115.371094 1095.617188 C 114.8125 1095.667969 114.292969 1095.789062 113.730469 1095.988281 L 104.632812 1099.808594 C 103.96875 1100.074219 108.238281 1102.558594 114.648438 1101.554688 C 119.996094 1100.640625 125.324219 1097.375 129.3125 1094.574219 Z M 143.960938 1095.484375 C 143.695312 1094.964844 143.550781 1094.4375 143.433594 1093.890625 C 142.46875 1093.683594 140.726562 1093.570312 137.71875 1093.824219 C 135.335938 1094.011719 133.039062 1094.734375 130.964844 1095.914062 L 120.832031 1101.71875 C 125.125 1102.351562 140.683594 1097.945312 143.960938 1095.484375 Z M 147.820312 1086.941406 C 147.734375 1086.660156 147.683594 1086.359375 147.601562 1086.082031 C 146.894531 1086.539062 146.3125 1087.226562 145.839844 1087.9375 C 146.425781 1087.511719 147.085938 1087.128906 147.820312 1086.941406 Z M 145.222656 1097.292969 C 145.085938 1097.117188 144.910156 1096.992188 144.828125 1096.832031 C 144.789062 1097.285156 144.71875 1097.621094 144.660156 1097.898438 C 144.824219 1097.671875 145.007812 1097.480469 145.222656 1097.292969 Z M 177.296875 1164.789062 C 177 1164.957031 176.636719 1165.023438 176.191406 1164.8125 C 174.722656 1164.238281 174.660156 1162.105469 174.660156 1162.105469 C 174.660156 1162.105469 173.824219 1163.433594 171.824219 1162.773438 C 169.8125 1162.167969 170.03125 1160.472656 170.03125 1160.472656 C 170.03125 1160.472656 169.015625 1161.851562 167.257812 1161.53125 C 165.449219 1161.203125 165.316406 1159.925781 165.164062 1159.167969 C 163.632812 1160.898438 161.109375 1160.125 160.484375 1157.902344 C 159.261719 1159.292969 156.550781 1158.710938 155.714844 1157.34375 C 154.363281 1158.242188 151.683594 1157.667969 151.136719 1155.894531 C 149.648438 1157.695312 147.03125 1157.363281 146.351562 1155.128906 C 145.898438 1155.757812 145.253906 1156.867188 143.46875 1156.425781 C 141.683594 1155.984375 141.375 1154.324219 141.375 1154.324219 C 141.375 1154.324219 140.878906 1155.957031 138.796875 1155.683594 C 136.714844 1155.410156 136.484375 1153.910156 136.484375 1153.910156 C 136.484375 1153.910156 135.582031 1155.835938 133.976562 1155.753906 C 133.488281 1155.734375 133.160156 1155.519531 132.980469 1155.277344 C 134.511719 1160.277344 138.269531 1165.957031 142.28125 1168.96875 C 143.65625 1169.988281 145.65625 1169.691406 146.550781 1168.230469 C 146.636719 1168.101562 146.679688 1168.023438 146.710938 1167.886719 C 147.183594 1168.917969 148.972656 1169.882812 150.4375 1169.933594 C 151.914062 1169.933594 152.847656 1169.085938 153.308594 1168.433594 C 153.519531 1169.203125 153.988281 1170.378906 155.304688 1170.980469 C 156.652344 1171.585938 158.691406 1171.386719 159.546875 1170.640625 C 159.570312 1170.792969 159.574219 1170.910156 159.550781 1171.019531 C 159.792969 1172.726562 161.46875 1173.8125 163.140625 1173.445312 C 168.0625 1172.351562 173.847656 1168.71875 177.296875 1164.789062 Z M 180.78125 1129.820312 C 180.484375 1130.394531 179.5625 1131.851562 177.875 1131.488281 C 175.152344 1130.960938 174.785156 1127.808594 174.625 1127.484375 C 174.539062 1127.609375 173.605469 1129.410156 171.25 1128.789062 C 169.390625 1128.011719 169.136719 1126.769531 168.925781 1125.1875 C 168.730469 1125.695312 168.414062 1126.089844 167.988281 1126.320312 C 166.691406 1127.230469 164.875 1126.929688 163.753906 1125.816406 C 163.351562 1125.410156 163.003906 1124.871094 162.816406 1124.253906 C 162.386719 1124.769531 161.855469 1125.089844 161.320312 1125.292969 C 159.84375 1125.847656 158.0625 1125.378906 157.253906 1124.015625 C 157.027344 1123.589844 156.835938 1123.140625 156.863281 1122.597656 C 156.074219 1123.992188 155.246094 1125.007812 153.269531 1124.929688 C 150.886719 1124.5625 150.777344 1122.507812 150.722656 1122.351562 C 150.457031 1122.527344 148.765625 1125.269531 146.117188 1124.671875 C 144.414062 1124.25 144.195312 1122.578125 144.152344 1121.957031 C 143.753906 1122.335938 141.457031 1124.28125 139.855469 1123.648438 C 137.160156 1126.230469 133.78125 1134.414062 133.761719 1135.046875 C 133.6875 1135.671875 133.859375 1136.34375 134.691406 1136.523438 C 136.40625 1136.890625 137.441406 1135.429688 137.425781 1135.515625 C 137.460938 1136.160156 138.09375 1136.703125 139.109375 1136.832031 C 140.964844 1137.085938 142.207031 1135.613281 142.207031 1135.613281 C 142.203125 1136.308594 142.625 1137.035156 144.097656 1137.179688 C 145.464844 1137.414062 146.679688 1136.484375 146.734375 1135.828125 C 147.050781 1136.914062 147.964844 1137.371094 149.144531 1137.390625 C 150.316406 1137.46875 150.953125 1137.054688 151.816406 1136.28125 C 151.816406 1136.28125 151.964844 1137.734375 153.644531 1138.007812 C 155.320312 1138.28125 156.765625 1137.34375 156.9375 1136.683594 C 156.9375 1136.683594 157.183594 1138.769531 159.566406 1139.398438 C 162.003906 1139.773438 163.078125 1138.003906 163.078125 1138.003906 C 163.03125 1138.632812 163.902344 1140.09375 165.539062 1140.5625 C 167.179688 1141 167.914062 1139.738281 167.914062 1139.738281 C 168.328125 1140.785156 168.800781 1141.40625 169.894531 1141.84375 C 170.992188 1142.253906 172.007812 1142.242188 172.734375 1141.410156 C 172.511719 1142.058594 173.234375 1143.402344 174.582031 1143.722656 C 175.984375 1144.195312 176.703125 1143.683594 176.953125 1143.070312 C 176.953125 1143.070312 177.480469 1144.925781 179.277344 1145.453125 C 180.253906 1145.75 181.082031 1145.523438 181.351562 1144.941406 C 181.371094 1144.859375 182.066406 1146.75 183.433594 1146.984375 C 184.855469 1147.230469 185.0625 1144.78125 185.09375 1144.644531 C 185.296875 1135.199219 184.234375 1133.140625 184.011719 1133.09375 C 182.257812 1133.039062 180.933594 1130.316406 180.78125 1129.820312 Z M 187.96875 1095.644531 C 188.652344 1095.296875 189.714844 1094.394531 190.074219 1092.847656 C 190.21875 1092.179688 190.195312 1091.480469 189.953125 1090.847656 C 189.386719 1089.304688 188.039062 1088.578125 186.925781 1088.371094 C 186.234375 1088.222656 185.625 1088.234375 185.285156 1088.335938 C 185.5 1087.746094 186.332031 1084.671875 183.25 1082.039062 C 182.707031 1081.601562 182.15625 1081.339844 181.628906 1081.226562 C 180.273438 1080.9375 179.058594 1081.488281 178.664062 1081.839844 C 178.695312 1081.292969 178.675781 1079.492188 176.511719 1078.386719 C 176.167969 1078.226562 175.875 1078.105469 175.558594 1078.097656 C 173.804688 1077.777344 172.457031 1079.34375 172.109375 1079.878906 C 172.101562 1079.238281 171.851562 1077.300781 169.515625 1076.855469 C 169.296875 1076.808594 169.128906 1076.773438 168.839844 1076.769531 C 166.136719 1076.566406 165.566406 1078.824219 165.4375 1079.695312 C 165.261719 1079.019531 164.6875 1077.648438 163.027344 1077.292969 C 162.558594 1077.191406 161.90625 1077.136719 161.207031 1077.28125 C 157.773438 1077.90625 157.15625 1081.863281 157.109375 1082.492188 C 156.851562 1082.207031 156.0625 1081.570312 155 1081.402344 C 154.167969 1081.222656 153.125 1081.375 151.929688 1082.222656 C 149.441406 1084.648438 151.4375 1088.296875 151.4375 1088.296875 C 151.4375 1088.296875 147.230469 1088.875 146.464844 1092.308594 C 146.140625 1093.832031 147.417969 1096.632812 150.347656 1097.40625 C 150.347656 1097.40625 146.558594 1097.144531 146.324219 1100.664062 C 146.0625 1104.175781 149.96875 1105.246094 149.96875 1105.246094 C 149.96875 1105.246094 145.613281 1107.066406 147.953125 1110.324219 C 149.289062 1112.179688 150.957031 1111.839844 152.171875 1111.289062 C 152.226562 1111.300781 152.257812 1111.308594 152.3125 1111.320312 C 152.992188 1110.972656 153.488281 1110.554688 153.703125 1110.371094 C 153.820312 1110.890625 154.34375 1113.175781 156.5 1114.191406 C 158.652344 1115.207031 160.652344 1114.386719 161.3125 1113.339844 C 161.367188 1113.351562 161.394531 1113.355469 161.449219 1113.367188 C 161.460938 1113.3125 161.523438 1113.296875 161.535156 1113.242188 C 161.523438 1114.109375 161.847656 1116.238281 164.222656 1116.894531 C 166.847656 1117.601562 168.140625 1115.5 168.449219 1114.871094 C 168.503906 1114.882812 168.53125 1114.886719 168.585938 1114.898438 C 168.832031 1115.503906 169.8125 1117.542969 172.480469 1117.652344 C 173.972656 1117.710938 174.960938 1117.023438 175.515625 1116.328125 C 175.570312 1116.339844 175.597656 1116.347656 175.652344 1116.359375 C 176.15625 1115.769531 176.371094 1115.175781 176.421875 1114.925781 C 176.78125 1115.554688 178.445312 1117.914062 180.699219 1117.527344 C 180.753906 1117.539062 180.753906 1117.539062 180.78125 1117.546875 C 181.046875 1117.515625 181.351562 1117.4375 181.648438 1117.269531 C 185.40625 1115.550781 182.777344 1112.289062 182.777344 1112.289062 C 182.777344 1112.289062 186.53125 1112.046875 187.191406 1109.375 C 187.847656 1106.730469 186.074219 1105.421875 186.074219 1105.421875 C 186.074219 1105.421875 189.757812 1105.515625 190.738281 1101.75 C 191.761719 1098.199219 187.96875 1095.644531 187.96875 1095.644531 Z M 190.414062 1106.644531 C 190.214844 1106.746094 190.054688 1106.828125 189.863281 1106.902344 C 189.984375 1107.160156 190.128906 1107.425781 190.191406 1107.667969 C 190.191406 1107.40625 190.328125 1107.03125 190.414062 1106.644531 Z M 193.117188 1098.085938 C 193.035156 1097.253906 192.765625 1096.355469 192.277344 1095.667969 C 192.140625 1095.902344 191.941406 1096.148438 191.722656 1096.363281 C 192.3125 1096.839844 192.789062 1097.460938 193.117188 1098.085938 Z M 210.21875 1120.875 L 203.363281 1111.425781 C 201.976562 1109.53125 200.183594 1107.898438 198.058594 1106.746094 C 195.441406 1105.316406 193.847656 1104.652344 192.875 1104.472656 C 192.539062 1104.953125 192.195312 1105.34375 191.742188 1105.710938 C 193.714844 1109.324219 206.121094 1119.734375 210.21875 1120.875 Z M 225.851562 1125.828125 L 219.125 1118.609375 C 218.75 1118.207031 218.28125 1117.820312 217.78125 1117.59375 L 205.496094 1110.925781 C 207.980469 1115.113281 211.503906 1120.28125 216.066406 1123.289062 C 221.410156 1126.847656 226.316406 1126.363281 225.851562 1125.828125 Z M 241.644531 1117.640625 C 235.238281 1117.832031 222.082031 1117.242188 221.453125 1118.152344 C 220.839844 1119.121094 227.8125 1124.507812 229.164062 1125.085938 C 231.128906 1125.914062 233.421875 1126.144531 235.539062 1125.585938 C 238.691406 1124.78125 241.449219 1123.398438 243.320312 1120.609375 C 244.207031 1119.320312 243.253906 1117.550781 241.644531 1117.640625 Z M 240.140625 1111.019531 C 236.878906 1109.769531 233.941406 1109.835938 230.613281 1109.4375 C 229 1109.265625 227.417969 1109.363281 225.847656 1109.664062 C 221.628906 1110.585938 211.835938 1110.777344 212.003906 1112.148438 C 216.550781 1117.390625 233.03125 1115.964844 241.597656 1115.570312 C 243.171875 1115.5 243.84375 1113.585938 242.652344 1112.546875 C 241.859375 1111.910156 240.957031 1111.398438 240.140625 1111.019531 Z M 246.859375 1101.84375 C 245.808594 1101.210938 244.632812 1100.753906 243.398438 1100.695312 C 232.132812 1099.929688 224.335938 1100.257812 214.421875 1100.21875 C 225.824219 1110.179688 250 1108.898438 253.828125 1107.253906 C 254.269531 1107.089844 250.074219 1103.839844 246.859375 1101.84375 Z M 266.5625 1097.394531 C 265.550781 1096.308594 263.964844 1095.878906 262.53125 1096.355469 L 249.972656 1100.132812 C 249.328125 1100.3125 249.125 1101.109375 249.570312 1101.613281 C 251.050781 1103.207031 253.738281 1104.972656 255.785156 1105.410156 C 257.832031 1105.851562 263.414062 1103.710938 264.304688 1103.0625 C 266.484375 1101.410156 267.582031 1098.976562 266.5625 1097.394531 Z M 269.179688 1086.816406 C 267.558594 1084 263.035156 1084.164062 259.359375 1087 C 257.945312 1088.058594 257.988281 1088.535156 259.445312 1089.570312 C 264.984375 1093.429688 268.339844 1095.050781 269.730469 1093.027344 C 270.5625 1091.695312 270.777344 1089.625 269.179688 1086.816406 Z M 185.195312 1093.597656 C 184.742188 1093.558594 184.339844 1093.820312 184.269531 1094.269531 C 184.015625 1095.871094 182.75 1096.640625 181.628906 1096.605469 C 180.402344 1096.515625 179.652344 1095.570312 179.628906 1094.058594 C 179.640625 1093.597656 179.253906 1093.25 178.785156 1093.265625 C 178.324219 1093.253906 177.980469 1093.644531 177.996094 1094.113281 C 178.011719 1094.84375 176.625 1095.792969 175.019531 1095.851562 C 173.859375 1095.867188 171.9375 1095.511719 171.828125 1092.644531 C 171.785156 1092.171875 171.398438 1091.828125 170.988281 1091.855469 C 170.515625 1091.898438 170.171875 1092.289062 170.195312 1092.699219 C 170.210938 1093.3125 169.984375 1093.699219 169.507812 1094.03125 C 168.414062 1094.667969 166.441406 1094.417969 165.179688 1093.566406 C 164.496094 1093.101562 163.769531 1092.308594 163.921875 1091.0625 C 163.960938 1090.609375 163.644531 1090.191406 163.199219 1090.125 C 162.742188 1090.085938 162.328125 1090.402344 162.261719 1090.851562 C 162.21875 1091.308594 161.960938 1091.570312 161.519531 1091.738281 C 160.480469 1092.125 158.847656 1091.65625 157.804688 1090.707031 C 157.273438 1090.21875 156.664062 1089.417969 156.992188 1088.300781 C 157.085938 1087.855469 156.867188 1087.402344 156.394531 1087.300781 C 155.964844 1087.152344 155.5 1087.429688 155.398438 1087.898438 C 155.023438 1089.386719 155.460938 1090.84375 156.726562 1091.957031 C 158.234375 1093.296875 160.511719 1093.871094 162.113281 1093.285156 C 162.269531 1093.234375 162.398438 1093.175781 162.566406 1093.066406 C 162.90625 1093.777344 163.457031 1094.445312 164.222656 1094.929688 C 164.902344 1095.394531 165.703125 1095.710938 166.53125 1095.890625 C 167.886719 1096.179688 169.269531 1096.070312 170.261719 1095.5 C 170.457031 1095.398438 170.632812 1095.261719 170.800781 1095.152344 C 171.511719 1096.550781 172.816406 1097.613281 175.089844 1097.550781 C 176.34375 1097.5 177.652344 1097.058594 178.5625 1096.324219 C 179.210938 1097.625 180.441406 1098.234375 181.609375 1098.3125 C 183.40625 1098.4375 185.621094 1097.144531 186.019531 1094.617188 C 185.949219 1094.136719 185.640625 1093.695312 185.195312 1093.597656 Z M 181.992188 1105.96875 C 181.539062 1105.929688 181.132812 1106.191406 181.066406 1106.640625 C 180.808594 1108.238281 179.542969 1109.011719 178.425781 1108.972656 C 177.199219 1108.886719 176.445312 1107.941406 176.425781 1106.425781 C 176.4375 1105.964844 176.046875 1105.621094 175.582031 1105.636719 C 175.121094 1105.625 174.777344 1106.015625 174.792969 1106.480469 C 174.808594 1107.210938 173.417969 1108.160156 171.8125 1108.222656 C 170.652344 1108.234375 168.734375 1107.878906 168.625 1105.015625 C 168.582031 1104.539062 168.191406 1104.195312 167.78125 1104.222656 C 167.308594 1104.265625 166.964844 1104.65625 166.992188 1105.070312 C 167.007812 1105.683594 166.777344 1106.066406 166.300781 1106.402344 C 165.210938 1107.039062 163.238281 1106.789062 161.972656 1105.9375 C 161.292969 1105.472656 160.566406 1104.675781 160.71875 1103.433594 C 160.757812 1102.976562 160.441406 1102.5625 159.992188 1102.492188 C 159.539062 1102.453125 159.125 1102.769531 159.054688 1103.222656 C 159.015625 1103.675781 158.757812 1103.941406 158.316406 1104.105469 C 157.277344 1104.492188 155.640625 1104.027344 154.601562 1103.078125 C 154.070312 1102.585938 153.460938 1101.789062 153.785156 1100.667969 C 153.882812 1100.226562 153.660156 1099.769531 153.191406 1099.671875 C 152.75 1099.574219 152.296875 1099.796875 152.195312 1100.269531 C 151.816406 1101.753906 152.257812 1103.210938 153.523438 1104.324219 C 155.03125 1105.664062 157.308594 1106.242188 158.910156 1105.65625 C 159.066406 1105.601562 159.195312 1105.542969 159.363281 1105.433594 C 159.703125 1106.144531 160.253906 1106.816406 161.015625 1107.296875 C 161.699219 1107.761719 162.496094 1108.078125 163.328125 1108.257812 C 164.683594 1108.550781 166.066406 1108.441406 167.058594 1107.867188 C 167.253906 1107.765625 167.425781 1107.628906 167.59375 1107.519531 C 168.308594 1108.921875 169.613281 1109.984375 171.882812 1109.921875 C 173.140625 1109.871094 174.449219 1109.425781 175.359375 1108.691406 C 176.007812 1109.992188 177.234375 1110.605469 178.40625 1110.679688 C 180.203125 1110.804688 182.417969 1109.511719 182.816406 1106.984375 C 182.746094 1106.507812 182.433594 1106.0625 181.992188 1105.96875 Z M 181.992188 1105.96875 " fill-opacity="1" fill-rule="nonzero"/></g></g></g></svg>